<svg xmlns="http://www.w3.org/2000/svg" viewBox="0 0 1200 520" preserveAspectRatio="xMidYMid slice"><polyline points="0,41.2 10,40.9 20,40.6 30,40.3 40,40.0 50,39.7 60,39.4 70,39.1 80,38.7 90,38.4 100,38.1 110,37.8 120,37.5 130,37.2 140,36.9 150,36.7 160,36.4 170,36.2 180,36.0 190,35.8 200,35.6 210,35.5 220,35.4 230,35.3 240,35.2 250,35.2 260,35.2 270,35.2 280,35.2 290,35.3 300,35.4 310,35.5 320,35.6 330,35.8 340,36.0 350,36.3 360,36.5 370,36.8 380,37.1 390,37.4 400,37.8 410,38.1 420,38.5 430,38.9 440,39.3 450,39.7 460,40.1 470,40.5 480,40.9 490,41.3 500,41.8 510,42.2 520,42.6 530,43.0 540,43.4 550,43.7 560,44.1 570,44.4 580,44.7 590,45.0 600,45.3 610,45.5 620,45.7 630,45.9 640,46.0 650,46.1 660,46.2 670,46.2 680,46.2 690,46.2 700,46.1 710,46.0 720,45.9 730,45.7 740,45.5 750,45.3 760,45.0 770,44.7 780,44.4 790,44.0 800,43.6 810,43.2 820,42.7 830,42.3 840,41.8 850,41.3 860,40.8 870,40.3 880,39.8 890,39.3 900,38.7 910,38.2 920,37.7 930,37.2 940,36.7 950,36.2 960,35.7 970,35.3 980,34.9 990,34.5 1000,34.1 1010,33.8 1020,33.5 1030,33.2 1040,33.0 1050,32.8 1060,32.6 1070,32.5 1080,32.4 1090,32.4 1100,32.4 1110,32.4 1120,32.5 1130,32.7 1140,32.9 1150,33.1 1160,33.4 1170,33.7 1180,34.0 1190,34.4 1200,34.8" fill="none" stroke="#E7C46A" stroke-width="1" opacity="0.08" stroke-linecap="round"/><polyline points="0,66.3 10,66.7 20,67.2 30,67.6 40,68.1 50,68.5 60,69.0 70,69.5 80,70.0 90,70.5 100,71.0 110,71.5 120,72.0 130,72.5 140,73.0 150,73.5 160,73.9 170,74.4 180,74.8 190,75.2 200,75.6 210,75.9 220,76.2 230,76.5 240,76.7 250,77.0 260,77.1 270,77.3 280,77.3 290,77.4 300,77.4 310,77.4 320,77.3 330,77.2 340,77.0 350,76.8 360,76.5 370,76.2 380,75.9 390,75.5 400,75.1 410,74.7 420,74.2 430,73.7 440,73.1 450,72.6 460,72.0 470,71.4 480,70.7 490,70.1 500,69.4 510,68.8 520,68.1 530,67.4 540,66.7 550,66.1 560,65.4 570,64.8 580,64.1 590,63.5 600,63.0 610,62.4 620,61.9 630,61.4 640,60.9 650,60.5 660,60.2 670,59.8 680,59.5 690,59.3 700,59.1 710,59.0 720,58.9 730,58.9 740,58.9 750,59.0 760,59.2 770,59.4 780,59.6 790,59.9 800,60.3 810,60.7 820,61.2 830,61.7 840,62.3 850,62.9 860,63.5 870,64.2 880,64.9 890,65.6 900,66.4 910,67.2 920,68.0 930,68.8 940,69.6 950,70.5 960,71.3 970,72.2 980,73.0 990,73.8 1000,74.6 1010,75.4 1020,76.2 1030,76.9 1040,77.6 1050,78.3 1060,78.9 1070,79.4 1080,80.0 1090,80.4 1100,80.9 1110,81.2 1120,81.5 1130,81.8 1140,81.9 1150,82.1 1160,82.1 1170,82.1 1180,82.0 1190,81.8 1200,81.6" fill="none" stroke="#8FD0DC" stroke-width="1" opacity="0.10" stroke-linecap="round"/><polyline points="0,98.2 10,97.5 20,96.9 30,96.2 40,95.5 50,94.8 60,94.1 70,93.4 80,92.8 90,92.2 100,91.6 110,91.1 120,90.6 130,90.1 140,89.7 150,89.3 160,88.9 170,88.7 180,88.4 190,88.3 200,88.2 210,88.1 220,88.1 230,88.2 240,88.4 250,88.6 260,88.8 270,89.2 280,89.5 290,90.0 300,90.5 310,91.1 320,91.7 330,92.3 340,93.0 350,93.8 360,94.6 370,95.4 380,96.3 390,97.1 400,98.0 410,99.0 420,99.9 430,100.8 440,101.7 450,102.7 460,103.6 470,104.5 480,105.3 490,106.2 500,107.0 510,107.7 520,108.4 530,109.1 540,109.7 550,110.3 560,110.8 570,111.2 580,111.6 590,111.9 600,112.1 610,112.2 620,112.3 630,112.3 640,112.2 650,112.0 660,111.7 670,111.4 680,111.0 690,110.5 700,109.9 710,109.3 720,108.6 730,107.8 740,107.0 750,106.1 760,105.1 770,104.1 780,103.1 790,102.0 800,100.9 810,99.8 820,98.7 830,97.5 840,96.3 850,95.2 860,94.0 870,92.9 880,91.8 890,90.7 900,89.7 910,88.7 920,87.7 930,86.8 940,86.0 950,85.2 960,84.5 970,83.9 980,83.3 990,82.9 1000,82.5 1010,82.2 1020,82.0 1030,81.9 1040,82.0 1050,82.1 1060,82.3 1070,82.6 1080,83.0 1090,83.5 1100,84.0 1110,84.7 1120,85.5 1130,86.3 1140,87.3 1150,88.3 1160,89.3 1170,90.5 1180,91.7 1190,92.9 1200,94.2" fill="none" stroke="#8FD0DC" stroke-width="1" opacity="0.12" stroke-linecap="round"/><polyline points="0,138.5 10,138.9 20,139.3 30,139.6 40,139.8 50,140.0 60,140.1 70,140.1 80,140.1 90,140.0 100,139.8 110,139.6 120,139.3 130,138.9 140,138.4 150,137.9 160,137.4 170,136.7 180,136.1 190,135.3 200,134.5 210,133.7 220,132.8 230,131.9 240,130.9 250,129.9 260,128.9 270,127.9 280,126.9 290,125.8 300,124.7 310,123.7 320,122.7 330,121.6 340,120.6 350,119.7 360,118.7 370,117.8 380,117.0 390,116.1 400,115.4 410,114.7 420,114.1 430,113.5 440,113.0 450,112.6 460,112.3 470,112.1 480,111.9 490,111.8 500,111.8 510,112.0 520,112.2 530,112.4 540,112.8 550,113.3 560,113.8 570,114.5 580,115.2 590,116.0 600,116.8 610,117.8 620,118.8 630,119.9 640,121.0 650,122.2 660,123.4 670,124.7 680,126.0 690,127.3 700,128.6 710,130.0 720,131.3 730,132.7 740,134.0 750,135.3 760,136.6 770,137.9 780,139.1 790,140.2 800,141.4 810,142.4 820,143.4 830,144.3 840,145.1 850,145.8 860,146.5 870,147.0 880,147.5 890,147.8 900,148.1 910,148.2 920,148.2 930,148.2 940,148.0 950,147.7 960,147.2 970,146.7 980,146.1 990,145.3 1000,144.5 1010,143.5 1020,142.5 1030,141.4 1040,140.2 1050,138.9 1060,137.5 1070,136.1 1080,134.6 1090,133.1 1100,131.5 1110,129.9 1120,128.3 1130,126.6 1140,125.0 1150,123.4 1160,121.7 1170,120.1 1180,118.5 1190,117.0 1200,115.5" fill="none" stroke="#E7C46A" stroke-width="1" opacity="0.13" stroke-linecap="round"/><polyline points="0,147.2 10,146.3 20,145.5 30,144.8 40,144.2 50,143.6 60,143.1 70,142.8 80,142.5 90,142.3 100,142.2 110,142.2 120,142.4 130,142.6 140,142.9 150,143.4 160,143.9 170,144.6 180,145.3 190,146.2 200,147.1 210,148.1 220,149.2 230,150.4 240,151.6 250,152.9 260,154.2 270,155.6 280,157.0 290,158.5 300,159.9 310,161.4 320,162.8 330,164.2 340,165.6 350,166.9 360,168.2 370,169.5 380,170.7 390,171.8 400,172.8 410,173.7 420,174.5 430,175.2 440,175.8 450,176.3 460,176.6 470,176.8 480,176.9 490,176.8 500,176.7 510,176.3 520,175.9 530,175.3 540,174.6 550,173.7 560,172.7 570,171.7 580,170.5 590,169.1 600,167.7 610,166.3 620,164.7 630,163.1 640,161.4 650,159.6 660,157.8 670,156.0 680,154.2 690,152.4 700,150.6 710,148.9 720,147.2 730,145.5 740,143.9 750,142.3 760,140.9 770,139.6 780,138.3 790,137.2 800,136.2 810,135.4 820,134.6 830,134.1 840,133.7 850,133.4 860,133.3 870,133.4 880,133.7 890,134.1 900,134.6 910,135.4 920,136.3 930,137.3 940,138.5 950,139.8 960,141.3 970,142.9 980,144.6 990,146.4 1000,148.3 1010,150.3 1020,152.3 1030,154.4 1040,156.6 1050,158.7 1060,160.9 1070,163.1 1080,165.2 1090,167.3 1100,169.4 1110,171.4 1120,173.3 1130,175.1 1140,176.8 1150,178.4 1160,179.9 1170,181.2 1180,182.4 1190,183.4 1200,184.2" fill="none" stroke="#8FD0DC" stroke-width="1" opacity="0.15" stroke-linecap="round"/><polyline points="0,195.9 10,196.8 20,197.8 30,198.7 40,199.6 50,200.4 60,201.2 70,201.9 80,202.6 90,203.2 100,203.7 110,204.2 120,204.5 130,204.8 140,205.1 150,205.2 160,205.3 170,205.3 180,205.1 190,204.9 200,204.7 210,204.3 220,203.8 230,203.3 240,202.6 250,201.9 260,201.1 270,200.3 280,199.3 290,198.3 300,197.2 310,196.1 320,194.9 330,193.6 340,192.3 350,190.9 360,189.5 370,188.1 380,186.7 390,185.2 400,183.7 410,182.2 420,180.7 430,179.3 440,177.8 450,176.4 460,175.0 470,173.6 480,172.3 490,171.0 500,169.8 510,168.6 520,167.6 530,166.6 540,165.6 550,164.8 560,164.0 570,163.4 580,162.8 590,162.4 600,162.0 610,161.8 620,161.7 630,161.7 640,161.8 650,162.0 660,162.3 670,162.8 680,163.3 690,164.0 700,164.8 710,165.7 720,166.7 730,167.8 740,169.0 750,170.3 760,171.7 770,173.1 780,174.7 790,176.3 800,178.0 810,179.7 820,181.5 830,183.3 840,185.2 850,187.1 860,189.0 870,190.9 880,192.8 890,194.7 900,196.6 910,198.4 920,200.2 930,202.0 940,203.7 950,205.4 960,207.0 970,208.5 980,209.9 990,211.2 1000,212.5 1010,213.6 1020,214.6 1030,215.5 1040,216.3 1050,216.9 1060,217.4 1070,217.8 1080,218.0 1090,218.1 1100,218.1 1110,217.9 1120,217.5 1130,217.1 1140,216.4 1150,215.7 1160,214.8 1170,213.7 1180,212.6 1190,211.3 1200,209.8" fill="none" stroke="#8FD0DC" stroke-width="1" opacity="0.17" stroke-linecap="round"/><polyline points="0,226.2 10,227.6 20,229.0 30,230.2 40,231.4 50,232.5 60,233.5 70,234.4 80,235.1 90,235.8 100,236.3 110,236.7 120,236.9 130,237.0 140,236.9 150,236.7 160,236.4 170,235.9 180,235.2 190,234.5 200,233.5 210,232.5 220,231.3 230,229.9 240,228.5 250,226.9 260,225.3 270,223.5 280,221.7 290,219.9 300,217.9 310,216.0 320,214.0 330,212.0 340,209.9 350,208.0 360,206.0 370,204.1 380,202.2 390,200.4 400,198.7 410,197.2 420,195.7 430,194.3 440,193.1 450,192.0 460,191.1 470,190.3 480,189.7 490,189.3 500,189.1 510,189.0 520,189.2 530,189.5 540,190.0 550,190.7 560,191.6 570,192.7 580,194.0 590,195.4 600,197.0 610,198.7 620,200.6 630,202.5 640,204.7 650,206.9 660,209.2 670,211.6 680,214.0 690,216.5 700,219.0 710,221.5 720,223.9 730,226.4 740,228.8 750,231.2 760,233.4 770,235.6 780,237.7 790,239.6 800,241.4 810,243.0 820,244.4 830,245.7 840,246.8 850,247.6 860,248.3 870,248.7 880,248.9 890,248.9 900,248.7 910,248.2 920,247.5 930,246.6 940,245.4 950,244.0 960,242.5 970,240.7 980,238.7 990,236.6 1000,234.3 1010,231.8 1020,229.2 1030,226.5 1040,223.7 1050,220.9 1060,217.9 1070,215.0 1080,212.0 1090,209.0 1100,206.0 1110,203.1 1120,200.2 1130,197.4 1140,194.8 1150,192.2 1160,189.8 1170,187.6 1180,185.5 1190,183.6 1200,182.0" fill="none" stroke="#E7C46A" stroke-width="1" opacity="0.18" stroke-linecap="round"/><polyline points="0,225.2 10,224.6 20,224.1 30,223.7 40,223.3 50,223.0 60,222.8 70,222.6 80,222.5 90,222.6 100,222.7 110,222.8 120,223.1 130,223.5 140,223.9 150,224.4 160,225.0 170,225.7 180,226.5 190,227.3 200,228.2 210,229.2 220,230.3 230,231.4 240,232.6 250,233.9 260,235.2 270,236.6 280,238.0 290,239.5 300,241.0 310,242.6 320,244.2 330,245.8 340,247.4 350,249.0 360,250.7 370,252.3 380,254.0 390,255.6 400,257.2 410,258.8 420,260.4 430,261.9 440,263.4 450,264.9 460,266.3 470,267.6 480,268.9 490,270.1 500,271.2 510,272.3 520,273.3 530,274.2 540,274.9 550,275.6 560,276.2 570,276.7 580,277.1 590,277.4 600,277.6 610,277.6 620,277.6 630,277.4 640,277.1 650,276.7 660,276.2 670,275.5 680,274.8 690,273.9 700,272.9 710,271.9 720,270.7 730,269.4 740,268.0 750,266.5 760,264.9 770,263.3 780,261.6 790,259.7 800,257.9 810,255.9 820,253.9 830,251.9 840,249.8 850,247.6 860,245.5 870,243.3 880,241.1 890,238.9 900,236.7 910,234.5 920,232.3 930,230.2 940,228.0 950,226.0 960,223.9 970,222.0 980,220.1 990,218.2 1000,216.5 1010,214.8 1020,213.2 1030,211.8 1040,210.4 1050,209.1 1060,208.0 1070,207.0 1080,206.1 1090,205.3 1100,204.7 1110,204.2 1120,203.8 1130,203.6 1140,203.5 1150,203.6 1160,203.8 1170,204.2 1180,204.7 1190,205.4 1200,206.2" fill="none" stroke="#8FD0DC" stroke-width="1" opacity="0.20" stroke-linecap="round"/><polyline points="0,271.9 10,274.0 20,276.1 30,278.3 40,280.5 50,282.6 60,284.8 70,286.9 80,288.9 90,290.8 100,292.7 110,294.4 120,296.0 130,297.4 140,298.7 150,299.9 160,300.8 170,301.6 180,302.1 190,302.5 200,302.6 210,302.5 220,302.2 230,301.7 240,300.9 250,300.0 260,298.8 270,297.4 280,295.8 290,294.0 300,292.1 310,290.0 320,287.7 330,285.3 340,282.8 350,280.2 360,277.5 370,274.8 380,272.0 390,269.2 400,266.5 410,263.7 420,261.0 430,258.4 440,255.8 450,253.4 460,251.2 470,249.0 480,247.1 490,245.3 500,243.8 510,242.5 520,241.4 530,240.6 540,240.0 550,239.7 560,239.6 570,239.9 580,240.4 590,241.1 600,242.2 610,243.5 620,245.1 630,246.9 640,249.0 650,251.3 660,253.8 670,256.5 680,259.3 690,262.3 700,265.5 710,268.7 720,272.0 730,275.4 740,278.8 750,282.2 760,285.6 770,288.9 780,292.2 790,295.3 800,298.4 810,301.2 820,303.9 830,306.4 840,308.7 850,310.7 860,312.5 870,313.9 880,315.1 890,316.0 900,316.6 910,316.8 920,316.8 930,316.4 940,315.6 950,314.6 960,313.2 970,311.5 980,309.5 990,307.2 1000,304.6 1010,301.8 1020,298.8 1030,295.5 1040,292.0 1050,288.4 1060,284.6 1070,280.7 1080,276.8 1090,272.8 1100,268.7 1110,264.7 1120,260.7 1130,256.8 1140,253.0 1150,249.3 1160,245.8 1170,242.5 1180,239.4 1190,236.6 1200,234.1" fill="none" stroke="#8FD0DC" stroke-width="1" opacity="0.22" stroke-linecap="round"/><polyline points="0,286.3 10,285.3 20,284.3 30,283.5 40,282.8 50,282.1 60,281.7 70,281.3 80,281.1 90,281.0 100,281.0 110,281.2 120,281.5 130,282.0 140,282.6 150,283.4 160,284.2 170,285.3 180,286.4 190,287.7 200,289.1 210,290.6 220,292.2 230,293.9 240,295.6 250,297.5 260,299.4 270,301.4 280,303.4 290,305.5 300,307.5 310,309.6 320,311.7 330,313.7 340,315.7 350,317.7 360,319.6 370,321.5 380,323.2 390,324.9 400,326.5 410,327.9 420,329.2 430,330.4 440,331.5 450,332.4 460,333.1 470,333.7 480,334.1 490,334.3 500,334.3 510,334.2 520,333.8 530,333.3 540,332.6 550,331.8 560,330.7 570,329.5 580,328.1 590,326.5 600,324.8 610,323.0 620,321.0 630,318.9 640,316.7 650,314.3 660,311.9 670,309.5 680,306.9 690,304.3 700,301.7 710,299.1 720,296.5 730,293.8 740,291.3 750,288.7 760,286.3 770,283.9 780,281.6 790,279.4 800,277.4 810,275.5 820,273.7 830,272.1 840,270.7 850,269.5 860,268.5 870,267.6 880,267.0 890,266.6 900,266.4 910,266.4 920,266.7 930,267.2 940,267.9 950,268.8 960,270.0 970,271.3 980,272.9 990,274.7 1000,276.7 1010,278.8 1020,281.1 1030,283.6 1040,286.2 1050,289.0 1060,291.9 1070,294.8 1080,297.9 1090,301.0 1100,304.1 1110,307.3 1120,310.5 1130,313.7 1140,316.8 1150,319.9 1160,322.9 1170,325.9 1180,328.7 1190,331.4 1200,334.0" fill="none" stroke="#E7C46A" stroke-width="1" opacity="0.20" stroke-linecap="round"/><polyline points="0,349.2 10,349.9 20,350.6 30,351.2 40,351.8 50,352.3 60,352.7 70,353.1 80,353.5 90,353.7 100,353.9 110,354.0 120,354.1 130,354.1 140,354.0 150,353.8 160,353.6 170,353.3 180,352.9 190,352.4 200,351.9 210,351.3 220,350.6 230,349.8 240,349.0 250,348.1 260,347.2 270,346.2 280,345.1 290,344.0 300,342.8 310,341.6 320,340.3 330,339.0 340,337.7 350,336.3 360,334.9 370,333.4 380,332.0 390,330.5 400,329.0 410,327.6 420,326.1 430,324.6 440,323.2 450,321.7 460,320.3 470,318.9 480,317.6 490,316.2 500,315.0 510,313.7 520,312.6 530,311.5 540,310.4 550,309.4 560,308.5 570,307.7 580,306.9 590,306.2 600,305.6 610,305.1 620,304.7 630,304.4 640,304.2 650,304.1 660,304.1 670,304.1 680,304.3 690,304.6 700,305.0 710,305.5 720,306.1 730,306.7 740,307.5 750,308.4 760,309.4 770,310.5 780,311.6 790,312.9 800,314.2 810,315.6 820,317.1 830,318.6 840,320.3 850,321.9 860,323.7 870,325.5 880,327.3 890,329.2 900,331.1 910,333.0 920,334.9 930,336.9 940,338.9 950,340.8 960,342.8 970,344.7 980,346.7 990,348.6 1000,350.4 1010,352.2 1020,354.0 1030,355.7 1040,357.4 1050,359.0 1060,360.5 1070,361.9 1080,363.3 1090,364.5 1100,365.7 1110,366.7 1120,367.7 1130,368.5 1140,369.3 1150,369.9 1160,370.4 1170,370.8 1180,371.0 1190,371.1 1200,371.1" fill="none" stroke="#8FD0DC" stroke-width="1" opacity="0.18" stroke-linecap="round"/><polyline points="0,359.8 10,358.8 20,357.8 30,356.8 40,355.8 50,354.8 60,353.9 70,352.9 80,352.0 90,351.1 100,350.2 110,349.4 120,348.6 130,347.8 140,347.1 150,346.4 160,345.8 170,345.2 180,344.7 190,344.2 200,343.8 210,343.5 220,343.2 230,343.0 240,342.9 250,342.8 260,342.8 270,342.9 280,343.1 290,343.3 300,343.6 310,344.0 320,344.4 330,344.9 340,345.5 350,346.2 360,346.9 370,347.7 380,348.6 390,349.5 400,350.5 410,351.5 420,352.6 430,353.8 440,355.0 450,356.2 460,357.5 470,358.8 480,360.1 490,361.5 500,362.9 510,364.3 520,365.7 530,367.1 540,368.5 550,369.9 560,371.3 570,372.7 580,374.1 590,375.4 600,376.7 610,378.0 620,379.2 630,380.4 640,381.5 650,382.6 660,383.6 670,384.6 680,385.5 690,386.3 700,387.0 710,387.6 720,388.2 730,388.7 740,389.1 750,389.4 760,389.6 770,389.7 780,389.7 790,389.7 800,389.5 810,389.2 820,388.8 830,388.4 840,387.8 850,387.1 860,386.4 870,385.5 880,384.6 890,383.6 900,382.4 910,381.2 920,380.0 930,378.6 940,377.2 950,375.7 960,374.2 970,372.6 980,370.9 990,369.2 1000,367.5 1010,365.7 1020,363.9 1030,362.1 1040,360.3 1050,358.4 1060,356.6 1070,354.8 1080,352.9 1090,351.1 1100,349.3 1110,347.6 1120,345.9 1130,344.2 1140,342.6 1150,341.1 1160,339.6 1170,338.2 1180,336.8 1190,335.6 1200,334.4" fill="none" stroke="#8FD0DC" stroke-width="1" opacity="0.17" stroke-linecap="round"/><polyline points="0,405.0 10,405.4 20,405.8 30,406.1 40,406.4 50,406.6 60,406.7 70,406.8 80,406.8 90,406.7 100,406.6 110,406.4 120,406.1 130,405.8 140,405.4 150,405.0 160,404.5 170,403.9 180,403.2 190,402.6 200,401.8 210,401.0 220,400.1 230,399.2 240,398.3 250,397.3 260,396.2 270,395.2 280,394.1 290,393.0 300,391.8 310,390.7 320,389.5 330,388.4 340,387.2 350,386.1 360,384.9 370,383.8 380,382.7 390,381.6 400,380.5 410,379.5 420,378.6 430,377.6 440,376.8 450,375.9 460,375.2 470,374.5 480,373.9 490,373.3 500,372.8 510,372.4 520,372.1 530,371.9 540,371.7 550,371.6 560,371.6 570,371.8 580,372.0 590,372.2 600,372.6 610,373.1 620,373.6 630,374.3 640,375.0 650,375.8 660,376.7 670,377.6 680,378.6 690,379.7 700,380.9 710,382.1 720,383.4 730,384.7 740,386.1 750,387.5 760,389.0 770,390.4 780,391.9 790,393.4 800,395.0 810,396.5 820,398.0 830,399.5 840,401.0 850,402.5 860,403.9 870,405.3 880,406.7 890,408.0 900,409.2 910,410.4 920,411.5 930,412.6 940,413.5 950,414.4 960,415.2 970,415.9 980,416.5 990,417.0 1000,417.4 1010,417.7 1020,417.9 1030,418.0 1040,417.9 1050,417.8 1060,417.5 1070,417.2 1080,416.7 1090,416.1 1100,415.4 1110,414.6 1120,413.7 1130,412.7 1140,411.5 1150,410.3 1160,409.0 1170,407.7 1180,406.2 1190,404.7 1200,403.1" fill="none" stroke="#E7C46A" stroke-width="1" opacity="0.15" stroke-linecap="round"/><polyline points="0,423.5 10,424.3 20,425.2 30,426.0 40,426.8 50,427.6 60,428.4 70,429.1 80,429.8 90,430.5 100,431.2 110,431.8 120,432.3 130,432.8 140,433.3 150,433.7 160,434.0 170,434.3 180,434.5 190,434.7 200,434.7 210,434.7 220,434.7 230,434.5 240,434.3 250,434.0 260,433.6 270,433.2 280,432.7 290,432.2 300,431.5 310,430.8 320,430.1 330,429.3 340,428.4 350,427.5 360,426.5 370,425.5 380,424.5 390,423.4 400,422.3 410,421.2 420,420.1 430,419.0 440,417.9 450,416.7 460,415.6 470,414.5 480,413.5 490,412.4 500,411.4 510,410.4 520,409.5 530,408.6 540,407.8 550,407.1 560,406.4 570,405.8 580,405.2 590,404.8 600,404.4 610,404.1 620,403.9 630,403.8 640,403.8 650,403.9 660,404.0 670,404.3 680,404.6 690,405.1 700,405.6 710,406.2 720,406.9 730,407.7 740,408.6 750,409.6 760,410.6 770,411.7 780,412.8 790,414.0 800,415.3 810,416.6 820,417.9 830,419.3 840,420.7 850,422.1 860,423.5 870,425.0 880,426.4 890,427.8 900,429.2 910,430.6 920,431.9 930,433.2 940,434.4 950,435.6 960,436.7 970,437.7 980,438.7 990,439.5 1000,440.3 1010,441.0 1020,441.6 1030,442.1 1040,442.5 1050,442.8 1060,443.0 1070,443.1 1080,443.0 1090,442.8 1100,442.6 1110,442.2 1120,441.7 1130,441.0 1140,440.3 1150,439.5 1160,438.5 1170,437.5 1180,436.4 1190,435.1 1200,433.8" fill="none" stroke="#8FD0DC" stroke-width="1" opacity="0.13" stroke-linecap="round"/><polyline points="0,454.0 10,453.3 20,452.5 30,451.8 40,451.0 50,450.2 60,449.4 70,448.6 80,447.9 90,447.1 100,446.3 110,445.5 120,444.8 130,444.1 140,443.4 150,442.8 160,442.3 170,441.7 180,441.3 190,440.9 200,440.5 210,440.3 220,440.1 230,439.9 240,439.9 250,439.9 260,440.0 270,440.2 280,440.5 290,440.8 300,441.2 310,441.7 320,442.3 330,442.9 340,443.6 350,444.3 360,445.2 370,446.0 380,446.9 390,447.9 400,448.8 410,449.8 420,450.8 430,451.9 440,452.9 450,453.9 460,454.9 470,455.9 480,456.9 490,457.8 500,458.7 510,459.6 520,460.4 530,461.1 540,461.8 550,462.4 560,462.9 570,463.4 580,463.7 590,464.0 600,464.2 610,464.2 620,464.2 630,464.1 640,463.9 650,463.6 660,463.2 670,462.7 680,462.1 690,461.4 700,460.6 710,459.8 720,458.9 730,457.9 740,456.8 750,455.7 760,454.6 770,453.4 780,452.2 790,450.9 800,449.7 810,448.4 820,447.1 830,445.9 840,444.7 850,443.5 860,442.3 870,441.2 880,440.2 890,439.2 900,438.3 910,437.4 920,436.7 930,436.0 940,435.5 950,435.0 960,434.7 970,434.4 980,434.3 990,434.3 1000,434.4 1010,434.7 1020,435.0 1030,435.5 1040,436.0 1050,436.7 1060,437.5 1070,438.4 1080,439.4 1090,440.4 1100,441.6 1110,442.8 1120,444.1 1130,445.5 1140,446.9 1150,448.3 1160,449.8 1170,451.3 1180,452.8 1190,454.3 1200,455.8" fill="none" stroke="#8FD0DC" stroke-width="1" opacity="0.12" stroke-linecap="round"/><polyline points="0,479.2 10,478.7 20,478.2 30,477.7 40,477.2 50,476.7 60,476.2 70,475.8 80,475.3 90,474.9 100,474.5 110,474.1 120,473.8 130,473.5 140,473.2 150,473.0 160,472.8 170,472.6 180,472.5 190,472.5 200,472.5 210,472.5 220,472.6 230,472.7 240,472.9 250,473.1 260,473.3 270,473.6 280,474.0 290,474.4 300,474.8 310,475.3 320,475.8 330,476.3 340,476.9 350,477.5 360,478.1 370,478.7 380,479.4 390,480.1 400,480.7 410,481.4 420,482.1 430,482.8 440,483.4 450,484.1 460,484.7 470,485.3 480,485.9 490,486.5 500,487.0 510,487.5 520,487.9 530,488.3 540,488.7 550,489.0 560,489.3 570,489.5 580,489.6 590,489.7 600,489.7 610,489.7 620,489.6 630,489.5 640,489.3 650,489.0 660,488.7 670,488.3 680,487.9 690,487.4 700,486.8 710,486.2 720,485.6 730,484.9 740,484.2 750,483.5 760,482.7 770,481.9 780,481.1 790,480.3 800,479.4 810,478.6 820,477.7 830,476.9 840,476.1 850,475.3 860,474.5 870,473.7 880,473.0 890,472.3 900,471.6 910,471.0 920,470.4 930,469.9 940,469.5 950,469.1 960,468.7 970,468.5 980,468.3 990,468.1 1000,468.1 1010,468.1 1020,468.2 1030,468.4 1040,468.6 1050,468.9 1060,469.3 1070,469.7 1080,470.2 1090,470.8 1100,471.4 1110,472.1 1120,472.9 1130,473.7 1140,474.5 1150,475.4 1160,476.3 1170,477.3 1180,478.2 1190,479.2 1200,480.2" fill="none" stroke="#E7C46A" stroke-width="1" opacity="0.10" stroke-linecap="round"/></svg>