<svg xmlns="http://www.w3.org/2000/svg" viewBox="0 0 1200 520" preserveAspectRatio="xMidYMid slice"><polyline points="0,22.1 12,22.1 24,22.0 36,21.9 48,21.7 60,21.6 72,21.4 84,21.2 96,21.0 108,20.8 120,20.6 132,20.3 144,20.1 156,19.8 168,19.6 180,19.3 192,19.0 204,18.8 216,18.5 228,18.2 240,18.0 252,17.8 264,17.5 276,17.3 288,17.2 300,17.0 312,16.8 324,16.7 336,16.6 348,16.6 360,16.5 372,16.5 384,16.5 396,16.6 408,16.6 420,16.8 432,16.9 444,17.0 456,17.2 468,17.5 480,17.7 492,18.0 504,18.3 516,18.6 528,18.9 540,19.2 552,19.6 564,20.0 576,20.3 588,20.7 600,21.1 612,21.5 624,21.8 636,22.2 648,22.5 660,22.9 672,23.2 684,23.5 696,23.7 708,24.0 720,24.2 732,24.4 744,24.5 756,24.6 768,24.7 780,24.7 792,24.7 804,24.7 816,24.6 828,24.5 840,24.3 852,24.1 864,23.9 876,23.6 888,23.3 900,23.0 912,22.6 924,22.2 936,21.8 948,21.4 960,20.9 972,20.4 984,20.0 996,19.5 1008,19.0 1020,18.5 1032,18.0 1044,17.6 1056,17.1 1068,16.7 1080,16.2 1092,15.9 1104,15.5 1116,15.2 1128,14.9 1140,14.6 1152,14.4 1164,14.2 1176,14.1 1188,14.0 1200,14.0" fill="none" stroke="#E7C46A" stroke-width="1" opacity="0.10"/><polyline points="0,36.7 12,36.5 24,36.4 36,36.2 48,36.1 60,36.0 72,35.9 84,35.8 96,35.8 108,35.7 120,35.8 132,35.8 144,35.9 156,36.0 168,36.1 180,36.2 192,36.4 204,36.6 216,36.8 228,37.1 240,37.4 252,37.6 264,38.0 276,38.3 288,38.6 300,39.0 312,39.3 324,39.7 336,40.1 348,40.5 360,40.8 372,41.2 384,41.6 396,41.9 408,42.3 420,42.6 432,42.9 444,43.2 456,43.4 468,43.7 480,43.8 492,44.0 504,44.1 516,44.2 528,44.3 540,44.3 552,44.3 564,44.3 576,44.2 588,44.0 600,43.9 612,43.7 624,43.4 636,43.1 648,42.8 660,42.5 672,42.1 684,41.7 696,41.2 708,40.8 720,40.3 732,39.8 744,39.3 756,38.8 768,38.3 780,37.8 792,37.2 804,36.7 816,36.2 828,35.8 840,35.3 852,34.9 864,34.4 876,34.1 888,33.7 900,33.4 912,33.1 924,32.9 936,32.7 948,32.5 960,32.4 972,32.4 984,32.4 996,32.4 1008,32.6 1020,32.7 1032,32.9 1044,33.2 1056,33.5 1068,33.8 1080,34.2 1092,34.7 1104,35.1 1116,35.7 1128,36.2 1140,36.8 1152,37.4 1164,38.0 1176,38.7 1188,39.3 1200,40.0" fill="none" stroke="#8FD0DC" stroke-width="1" opacity="0.11"/><polyline points="0,57.6 12,57.2 24,56.8 36,56.4 48,56.0 60,55.7 72,55.4 84,55.0 96,54.8 108,54.5 120,54.3 132,54.1 144,54.0 156,53.9 168,53.9 180,53.9 192,53.9 204,54.0 216,54.2 228,54.4 240,54.7 252,55.0 264,55.3 276,55.7 288,56.1 300,56.6 312,57.1 324,57.6 336,58.1 348,58.7 360,59.2 372,59.8 384,60.3 396,60.9 408,61.4 420,61.9 432,62.4 444,62.9 456,63.3 468,63.6 480,63.9 492,64.2 504,64.4 516,64.6 528,64.6 540,64.6 552,64.6 564,64.5 576,64.3 588,64.0 600,63.7 612,63.3 624,62.9 636,62.4 648,61.8 660,61.3 672,60.6 684,60.0 696,59.3 708,58.5 720,57.8 732,57.1 744,56.3 756,55.6 768,54.9 780,54.3 792,53.6 804,53.0 816,52.5 828,52.0 840,51.5 852,51.2 864,50.9 876,50.6 888,50.5 900,50.4 912,50.5 924,50.6 936,50.8 948,51.0 960,51.4 972,51.8 984,52.4 996,52.9 1008,53.6 1020,54.3 1032,55.1 1044,55.9 1056,56.7 1068,57.6 1080,58.5 1092,59.4 1104,60.3 1116,61.2 1128,62.1 1140,62.9 1152,63.8 1164,64.5 1176,65.2 1188,65.9 1200,66.5" fill="none" stroke="#8FD0DC" stroke-width="1" opacity="0.12"/><polyline points="0,79.2 12,79.7 24,80.1 36,80.6 48,81.0 60,81.4 72,81.7 84,82.0 96,82.3 108,82.5 120,82.7 132,82.8 144,82.8 156,82.8 168,82.7 180,82.5 192,82.3 204,82.0 216,81.6 228,81.2 240,80.7 252,80.2 264,79.6 276,79.0 288,78.4 300,77.7 312,77.0 324,76.3 336,75.7 348,75.0 360,74.3 372,73.7 384,73.1 396,72.6 408,72.1 420,71.6 432,71.2 444,70.9 456,70.7 468,70.6 480,70.5 492,70.6 504,70.7 516,70.9 528,71.2 540,71.6 552,72.0 564,72.6 576,73.2 588,73.8 600,74.6 612,75.4 624,76.2 636,77.1 648,77.9 660,78.8 672,79.7 684,80.6 696,81.4 708,82.3 720,83.0 732,83.8 744,84.4 756,85.0 768,85.5 780,85.9 792,86.2 804,86.4 816,86.5 828,86.5 840,86.4 852,86.2 864,85.9 876,85.4 888,84.9 900,84.2 912,83.5 924,82.7 936,81.8 948,80.8 960,79.8 972,78.8 984,77.7 996,76.6 1008,75.5 1020,74.4 1032,73.4 1044,72.3 1056,71.4 1068,70.5 1080,69.6 1092,68.9 1104,68.2 1116,67.7 1128,67.3 1140,67.0 1152,66.8 1164,66.8 1176,66.8 1188,67.1 1200,67.4" fill="none" stroke="#E7C46A" stroke-width="1" opacity="0.14"/><polyline points="0,98.0 12,98.5 24,99.1 36,99.6 48,100.1 60,100.6 72,101.1 84,101.5 96,101.9 108,102.2 120,102.5 132,102.7 144,102.8 156,102.9 168,102.9 180,102.9 192,102.7 204,102.5 216,102.2 228,101.9 240,101.5 252,101.0 264,100.5 276,99.9 288,99.2 300,98.5 312,97.8 324,97.1 336,96.3 348,95.5 360,94.8 372,94.0 384,93.2 396,92.5 408,91.8 420,91.2 432,90.6 444,90.0 456,89.5 468,89.2 480,88.8 492,88.6 504,88.5 516,88.4 528,88.5 540,88.6 552,88.9 564,89.2 576,89.7 588,90.2 600,90.8 612,91.5 624,92.2 636,93.1 648,94.0 660,94.9 672,95.9 684,96.9 696,97.9 708,98.9 720,99.9 732,100.9 744,101.8 756,102.8 768,103.6 780,104.4 792,105.1 804,105.8 816,106.3 828,106.8 840,107.1 852,107.3 864,107.4 876,107.4 888,107.3 900,107.0 912,106.6 924,106.1 936,105.5 948,104.8 960,104.0 972,103.1 984,102.1 996,101.0 1008,99.9 1020,98.7 1032,97.5 1044,96.2 1056,95.0 1068,93.7 1080,92.5 1092,91.3 1104,90.1 1116,89.0 1128,88.0 1140,87.1 1152,86.3 1164,85.6 1176,85.0 1188,84.5 1200,84.2" fill="none" stroke="#8FD0DC" stroke-width="1" opacity="0.15"/><polyline points="0,118.5 12,118.9 24,119.4 36,119.9 48,120.3 60,120.8 72,121.2 84,121.5 96,121.9 108,122.2 120,122.4 132,122.6 144,122.8 156,122.9 168,123.0 180,123.0 192,122.9 204,122.8 216,122.7 228,122.5 240,122.2 252,121.9 264,121.5 276,121.0 288,120.6 300,120.0 312,119.5 324,118.9 336,118.2 348,117.5 360,116.8 372,116.1 384,115.4 396,114.6 408,113.9 420,113.1 432,112.3 444,111.6 456,110.9 468,110.2 480,109.6 492,108.9 504,108.4 516,107.8 528,107.4 540,107.0 552,106.6 564,106.3 576,106.1 588,106.0 600,105.9 612,105.9 624,106.0 636,106.2 648,106.4 660,106.7 672,107.1 684,107.6 696,108.2 708,108.8 720,109.5 732,110.2 744,111.0 756,111.9 768,112.8 780,113.7 792,114.7 804,115.7 816,116.7 828,117.7 840,118.7 852,119.7 864,120.8 876,121.7 888,122.7 900,123.6 912,124.5 924,125.3 936,126.0 948,126.7 960,127.3 972,127.9 984,128.3 996,128.7 1008,129.0 1020,129.2 1032,129.2 1044,129.2 1056,129.1 1068,128.9 1080,128.5 1092,128.1 1104,127.6 1116,127.0 1128,126.2 1140,125.4 1152,124.6 1164,123.6 1176,122.6 1188,121.5 1200,120.3" fill="none" stroke="#8FD0DC" stroke-width="1" opacity="0.16"/><polyline points="0,138.2 12,137.4 24,136.6 36,135.8 48,134.9 60,134.0 72,133.2 84,132.3 96,131.4 108,130.6 120,129.8 132,129.1 144,128.5 156,128.0 168,127.6 180,127.3 192,127.2 204,127.2 216,127.3 228,127.5 240,127.9 252,128.4 264,129.1 276,129.9 288,130.7 300,131.7 312,132.7 324,133.8 336,135.0 348,136.2 360,137.4 372,138.6 384,139.7 396,140.8 408,141.8 420,142.8 432,143.6 444,144.3 456,144.9 468,145.3 480,145.5 492,145.6 504,145.5 516,145.2 528,144.8 540,144.2 552,143.4 564,142.5 576,141.4 588,140.2 600,138.9 612,137.6 624,136.1 636,134.6 648,133.1 660,131.7 672,130.2 684,128.8 696,127.5 708,126.3 720,125.2 732,124.3 744,123.6 756,123.0 768,122.6 780,122.4 792,122.5 804,122.7 816,123.2 828,123.9 840,124.7 852,125.8 864,127.0 876,128.4 888,129.9 900,131.6 912,133.3 924,135.1 936,136.8 948,138.6 960,140.4 972,142.1 984,143.7 996,145.2 1008,146.5 1020,147.7 1032,148.7 1044,149.4 1056,150.0 1068,150.3 1080,150.3 1092,150.1 1104,149.7 1116,149.0 1128,148.0 1140,146.9 1152,145.5 1164,143.9 1176,142.2 1188,140.4 1200,138.4" fill="none" stroke="#E7C46A" stroke-width="1" opacity="0.17"/><polyline points="0,159.4 12,159.9 24,160.4 36,160.9 48,161.3 60,161.7 72,162.0 84,162.2 96,162.4 108,162.5 120,162.5 132,162.5 144,162.3 156,162.1 168,161.9 180,161.5 192,161.1 204,160.6 216,160.0 228,159.4 240,158.7 252,157.9 264,157.1 276,156.3 288,155.4 300,154.5 312,153.5 324,152.6 336,151.6 348,150.7 360,149.8 372,148.9 384,148.0 396,147.1 408,146.4 420,145.6 432,145.0 444,144.4 456,143.9 468,143.5 480,143.1 492,142.9 504,142.8 516,142.7 528,142.8 540,143.0 552,143.3 564,143.7 576,144.2 588,144.8 600,145.5 612,146.3 624,147.2 636,148.2 648,149.2 660,150.3 672,151.5 684,152.7 696,153.9 708,155.2 720,156.5 732,157.7 744,159.0 756,160.3 768,161.5 780,162.6 792,163.8 804,164.8 816,165.8 828,166.6 840,167.4 852,168.1 864,168.6 876,169.1 888,169.4 900,169.6 912,169.6 924,169.5 936,169.3 948,168.9 960,168.4 972,167.8 984,167.0 996,166.1 1008,165.1 1020,164.0 1032,162.8 1044,161.4 1056,160.1 1068,158.6 1080,157.1 1092,155.5 1104,153.9 1116,152.3 1128,150.7 1140,149.1 1152,147.5 1164,146.0 1176,144.5 1188,143.1 1200,141.8" fill="none" stroke="#8FD0DC" stroke-width="1" opacity="0.19"/><polyline points="0,168.0 12,167.2 24,166.5 36,166.0 48,165.5 60,165.2 72,165.1 84,165.1 96,165.3 108,165.6 120,166.1 132,166.7 144,167.5 156,168.4 168,169.5 180,170.6 192,171.9 204,173.2 216,174.5 228,175.9 240,177.2 252,178.5 264,179.7 276,180.9 288,181.9 300,182.9 312,183.6 324,184.2 336,184.6 348,184.8 360,184.8 372,184.6 384,184.2 396,183.6 408,182.7 420,181.7 432,180.5 444,179.2 456,177.7 468,176.2 480,174.5 492,172.8 504,171.1 516,169.4 528,167.8 540,166.2 552,164.7 564,163.4 576,162.2 588,161.3 600,160.5 612,160.0 624,159.7 636,159.7 648,159.9 660,160.4 672,161.1 684,162.1 696,163.3 708,164.7 720,166.4 732,168.1 744,170.0 756,172.0 768,174.1 780,176.2 792,178.2 804,180.2 816,182.2 828,183.9 840,185.6 852,187.0 864,188.2 876,189.1 888,189.8 900,190.2 912,190.3 924,190.0 936,189.5 948,188.7 960,187.5 972,186.1 984,184.5 996,182.6 1008,180.6 1020,178.3 1032,176.0 1044,173.6 1056,171.1 1068,168.7 1080,166.3 1092,164.1 1104,161.9 1116,160.0 1128,158.3 1140,156.9 1152,155.7 1164,154.9 1176,154.4 1188,154.2 1200,154.4" fill="none" stroke="#8FD0DC" stroke-width="1" opacity="0.20"/><polyline points="0,188.9 12,188.0 24,187.2 36,186.5 48,185.8 60,185.1 72,184.5 84,184.0 96,183.6 108,183.3 120,183.0 132,182.9 144,182.9 156,183.0 168,183.2 180,183.5 192,184.0 204,184.5 216,185.2 228,185.9 240,186.8 252,187.7 264,188.7 276,189.8 288,191.0 300,192.1 312,193.4 324,194.6 336,195.9 348,197.1 360,198.3 372,199.5 384,200.6 396,201.7 408,202.7 420,203.6 432,204.4 444,205.1 456,205.6 468,206.1 480,206.4 492,206.5 504,206.5 516,206.3 528,206.0 540,205.6 552,205.0 564,204.2 576,203.3 588,202.3 600,201.1 612,199.9 624,198.5 636,197.1 648,195.5 660,194.0 672,192.3 684,190.7 696,189.1 708,187.4 720,185.8 732,184.3 744,182.8 756,181.4 768,180.2 780,179.0 792,178.0 804,177.1 816,176.4 828,175.8 840,175.5 852,175.3 864,175.3 876,175.5 888,175.9 900,176.5 912,177.2 924,178.2 936,179.3 948,180.6 960,182.0 972,183.6 984,185.3 996,187.2 1008,189.0 1020,191.0 1032,193.0 1044,195.1 1056,197.1 1068,199.1 1080,201.1 1092,203.0 1104,204.8 1116,206.5 1128,208.1 1140,209.5 1152,210.8 1164,211.9 1176,212.8 1188,213.5 1200,213.9" fill="none" stroke="#E7C46A" stroke-width="1" opacity="0.21"/><polyline points="0,210.6 12,211.4 24,212.2 36,213.0 48,213.8 60,214.6 72,215.5 84,216.3 96,217.1 108,217.9 120,218.7 132,219.5 144,220.2 156,220.9 168,221.5 180,222.1 192,222.6 204,223.0 216,223.4 228,223.7 240,223.9 252,224.0 264,224.1 276,224.0 288,223.9 300,223.7 312,223.4 324,223.0 336,222.5 348,221.9 360,221.2 372,220.4 384,219.6 396,218.7 408,217.7 420,216.7 432,215.6 444,214.5 456,213.3 468,212.1 480,210.8 492,209.6 504,208.3 516,207.1 528,205.8 540,204.6 552,203.4 564,202.3 576,201.2 588,200.2 600,199.2 612,198.3 624,197.5 636,196.8 648,196.2 660,195.7 672,195.3 684,195.0 696,194.9 708,194.8 720,194.9 732,195.1 744,195.5 756,195.9 768,196.5 780,197.2 792,198.0 804,199.0 816,200.0 828,201.2 840,202.4 852,203.8 864,205.2 876,206.7 888,208.2 900,209.8 912,211.5 924,213.1 936,214.8 948,216.5 960,218.1 972,219.8 984,221.4 996,223.0 1008,224.5 1020,225.9 1032,227.3 1044,228.6 1056,229.7 1068,230.8 1080,231.7 1092,232.5 1104,233.1 1116,233.7 1128,234.0 1140,234.2 1152,234.3 1164,234.2 1176,233.9 1188,233.5 1200,232.9" fill="none" stroke="#8FD0DC" stroke-width="1" opacity="0.22"/><polyline points="0,223.5 12,224.1 24,224.7 36,225.4 48,226.2 60,227.1 72,228.0 84,229.0 96,230.0 108,231.1 120,232.2 132,233.3 144,234.5 156,235.6 168,236.7 180,237.8 192,238.8 204,239.8 216,240.8 228,241.6 240,242.4 252,243.1 264,243.7 276,244.2 288,244.5 300,244.7 312,244.8 324,244.8 336,244.6 348,244.3 360,243.9 372,243.3 384,242.6 396,241.7 408,240.8 420,239.7 432,238.5 444,237.2 456,235.9 468,234.4 480,232.9 492,231.4 504,229.8 516,228.3 528,226.7 540,225.1 552,223.6 564,222.1 576,220.6 588,219.3 600,218.0 612,216.9 624,215.9 636,215.0 648,214.2 660,213.6 672,213.2 684,212.9 696,212.9 708,212.9 720,213.2 732,213.7 744,214.3 756,215.1 768,216.1 780,217.2 792,218.5 804,220.0 816,221.5 828,223.2 840,225.0 852,226.9 864,228.9 876,230.9 888,232.9 900,234.9 912,237.0 924,239.0 936,240.9 948,242.8 960,244.6 972,246.3 984,247.9 996,249.4 1008,250.6 1020,251.7 1032,252.7 1044,253.4 1056,253.9 1068,254.2 1080,254.3 1092,254.1 1104,253.8 1116,253.2 1128,252.3 1140,251.3 1152,250.1 1164,248.6 1176,247.0 1188,245.2 1200,243.2" fill="none" stroke="#8FD0DC" stroke-width="1" opacity="0.24"/><polyline points="0,258.7 12,259.4 24,260.0 36,260.5 48,261.0 60,261.4 72,261.8 84,262.0 96,262.2 108,262.2 120,262.2 132,262.1 144,261.9 156,261.5 168,261.1 180,260.6 192,260.0 204,259.2 216,258.4 228,257.6 240,256.6 252,255.5 264,254.4 276,253.3 288,252.0 300,250.8 312,249.5 324,248.2 336,246.9 348,245.6 360,244.3 372,243.0 384,241.7 396,240.5 408,239.4 420,238.3 432,237.3 444,236.3 456,235.5 468,234.8 480,234.2 492,233.7 504,233.3 516,233.1 528,233.0 540,233.0 552,233.2 564,233.5 576,234.0 588,234.6 600,235.3 612,236.2 624,237.2 636,238.3 648,239.5 660,240.9 672,242.3 684,243.9 696,245.5 708,247.1 720,248.9 732,250.6 744,252.4 756,254.2 768,256.0 780,257.8 792,259.6 804,261.3 816,262.9 828,264.5 840,266.0 852,267.4 864,268.6 876,269.8 888,270.8 900,271.6 912,272.3 924,272.8 936,273.2 948,273.4 960,273.4 972,273.2 984,272.8 996,272.3 1008,271.6 1020,270.7 1032,269.6 1044,268.3 1056,266.9 1068,265.4 1080,263.7 1092,261.9 1104,260.0 1116,257.9 1128,255.8 1140,253.6 1152,251.4 1164,249.1 1176,246.8 1188,244.5 1200,242.2" fill="none" stroke="#E7C46A" stroke-width="1" opacity="0.25"/><polyline points="0,280.1 12,279.6 24,279.0 36,278.2 48,277.2 60,276.0 72,274.8 84,273.4 96,271.9 108,270.3 120,268.6 132,267.0 144,265.3 156,263.7 168,262.1 180,260.6 192,259.2 204,258.0 216,256.9 228,256.1 240,255.4 252,254.9 264,254.7 276,254.7 288,255.0 300,255.5 312,256.3 324,257.3 336,258.6 348,260.0 360,261.7 372,263.5 384,265.4 396,267.5 408,269.6 420,271.8 432,274.0 444,276.1 456,278.2 468,280.2 480,282.0 492,283.7 504,285.2 516,286.4 528,287.4 540,288.1 552,288.5 564,288.6 576,288.4 588,287.9 600,287.0 612,285.9 624,284.4 636,282.7 648,280.8 660,278.6 672,276.3 684,273.7 696,271.1 708,268.4 720,265.7 732,263.1 744,260.4 756,257.9 768,255.6 780,253.4 792,251.5 804,249.8 816,248.5 828,247.4 840,246.8 852,246.5 864,246.6 876,247.0 888,247.8 900,249.1 912,250.6 924,252.5 936,254.7 948,257.2 960,259.9 972,262.9 984,265.9 996,269.1 1008,272.3 1020,275.6 1032,278.7 1044,281.8 1056,284.7 1068,287.4 1080,289.8 1092,291.9 1104,293.7 1116,295.1 1128,296.1 1140,296.7 1152,296.9 1164,296.5 1176,295.8 1188,294.6 1200,293.0" fill="none" stroke="#8FD0DC" stroke-width="1" opacity="0.26"/><polyline points="0,298.3 12,298.9 24,299.4 36,299.7 48,300.0 60,300.0 72,299.9 84,299.7 96,299.3 108,298.7 120,298.0 132,297.1 144,296.1 156,295.0 168,293.8 180,292.5 192,291.1 204,289.6 216,288.1 228,286.5 240,285.0 252,283.4 264,281.9 276,280.5 288,279.1 300,277.9 312,276.7 324,275.7 336,274.9 348,274.2 360,273.7 372,273.4 384,273.3 396,273.4 408,273.7 420,274.2 432,275.0 444,275.9 456,277.0 468,278.3 480,279.8 492,281.4 504,283.1 516,285.0 528,286.9 540,288.9 552,291.0 564,293.0 576,295.0 588,297.0 600,298.9 612,300.7 624,302.4 636,303.9 648,305.2 660,306.4 672,307.3 684,308.0 696,308.4 708,308.6 720,308.6 732,308.2 744,307.6 756,306.8 768,305.7 780,304.3 792,302.7 804,300.9 816,299.0 828,296.8 840,294.6 852,292.2 864,289.7 876,287.2 888,284.6 900,282.1 912,279.7 924,277.3 936,275.0 948,272.9 960,271.0 972,269.3 984,267.8 996,266.6 1008,265.7 1020,265.0 1032,264.7 1044,264.7 1056,265.0 1068,265.6 1080,266.5 1092,267.8 1104,269.3 1116,271.1 1128,273.2 1140,275.5 1152,278.0 1164,280.7 1176,283.5 1188,286.5 1200,289.5" fill="none" stroke="#8FD0DC" stroke-width="1" opacity="0.25"/><polyline points="0,300.5 12,299.7 24,299.1 36,298.5 48,298.0 60,297.6 72,297.3 84,297.1 96,297.1 108,297.1 120,297.3 132,297.6 144,298.0 156,298.5 168,299.2 180,300.0 192,300.8 204,301.8 216,302.9 228,304.0 240,305.3 252,306.5 264,307.9 276,309.2 288,310.6 300,312.0 312,313.3 324,314.7 336,316.0 348,317.2 360,318.4 372,319.4 384,320.4 396,321.2 408,322.0 420,322.6 432,323.0 444,323.3 456,323.4 468,323.4 480,323.2 492,322.8 504,322.3 516,321.6 528,320.7 540,319.7 552,318.5 564,317.3 576,315.8 588,314.3 600,312.7 612,311.0 624,309.2 636,307.4 648,305.6 660,303.8 672,301.9 684,300.2 696,298.4 708,296.8 720,295.2 732,293.8 744,292.5 756,291.3 768,290.3 780,289.5 792,288.8 804,288.4 816,288.1 828,288.1 840,288.3 852,288.6 864,289.3 876,290.1 888,291.1 900,292.3 912,293.7 924,295.3 936,297.0 948,298.9 960,300.9 972,303.0 984,305.2 996,307.4 1008,309.7 1020,312.0 1032,314.3 1044,316.5 1056,318.7 1068,320.8 1080,322.8 1092,324.6 1104,326.3 1116,327.9 1128,329.2 1140,330.3 1152,331.2 1164,331.9 1176,332.3 1188,332.4 1200,332.3" fill="none" stroke="#E7C46A" stroke-width="1" opacity="0.24"/><polyline points="0,324.5 12,323.7 24,322.9 36,322.2 48,321.4 60,320.7 72,320.0 84,319.3 96,318.7 108,318.1 120,317.6 132,317.1 144,316.7 156,316.4 168,316.1 180,316.0 192,315.9 204,315.9 216,316.0 228,316.1 240,316.4 252,316.7 264,317.2 276,317.7 288,318.3 300,319.0 312,319.7 324,320.6 336,321.5 348,322.4 360,323.4 372,324.5 384,325.6 396,326.8 408,328.0 420,329.1 432,330.4 444,331.6 456,332.7 468,333.9 480,335.1 492,336.2 504,337.2 516,338.2 528,339.2 540,340.1 552,340.8 564,341.5 576,342.2 588,342.7 600,343.1 612,343.3 624,343.5 636,343.6 648,343.5 660,343.3 672,343.0 684,342.6 696,342.0 708,341.3 720,340.5 732,339.6 744,338.6 756,337.5 768,336.3 780,335.0 792,333.6 804,332.2 816,330.7 828,329.1 840,327.6 852,325.9 864,324.3 876,322.7 888,321.1 900,319.5 912,317.9 924,316.4 936,315.0 948,313.6 960,312.3 972,311.1 984,309.9 996,309.0 1008,308.1 1020,307.3 1032,306.7 1044,306.3 1056,306.0 1068,305.8 1080,305.8 1092,305.9 1104,306.3 1116,306.7 1128,307.4 1140,308.1 1152,309.1 1164,310.2 1176,311.4 1188,312.7 1200,314.2" fill="none" stroke="#8FD0DC" stroke-width="1" opacity="0.22"/><polyline points="0,349.5 12,350.3 24,351.1 36,351.8 48,352.5 60,353.2 72,353.8 84,354.4 96,355.0 108,355.4 120,355.8 132,356.2 144,356.4 156,356.5 168,356.6 180,356.6 192,356.5 204,356.3 216,355.9 228,355.5 240,355.1 252,354.5 264,353.8 276,353.0 288,352.2 300,351.3 312,350.3 324,349.3 336,348.3 348,347.1 360,346.0 372,344.8 384,343.7 396,342.5 408,341.3 420,340.2 432,339.1 444,338.0 456,337.0 468,336.1 480,335.2 492,334.4 504,333.8 516,333.2 528,332.7 540,332.3 552,332.1 564,331.9 576,331.9 588,332.1 600,332.3 612,332.7 624,333.2 636,333.9 648,334.7 660,335.5 672,336.5 684,337.6 696,338.8 708,340.1 720,341.5 732,342.9 744,344.4 756,345.9 768,347.5 780,349.0 792,350.6 804,352.1 816,353.7 828,355.1 840,356.6 852,357.9 864,359.2 876,360.4 888,361.5 900,362.4 912,363.2 924,363.9 936,364.5 948,364.9 960,365.1 972,365.2 984,365.1 996,364.8 1008,364.4 1020,363.8 1032,363.0 1044,362.1 1056,361.0 1068,359.8 1080,358.5 1092,357.0 1104,355.5 1116,353.8 1128,352.0 1140,350.2 1152,348.3 1164,346.4 1176,344.4 1188,342.4 1200,340.5" fill="none" stroke="#8FD0DC" stroke-width="1" opacity="0.21"/><polyline points="0,358.5 12,358.1 24,357.8 36,357.5 48,357.3 60,357.2 72,357.2 84,357.4 96,357.6 108,357.9 120,358.3 132,358.8 144,359.4 156,360.1 168,360.8 180,361.7 192,362.6 204,363.5 216,364.6 228,365.6 240,366.7 252,367.8 264,368.9 276,369.9 288,371.0 300,372.0 312,372.9 324,373.8 336,374.7 348,375.4 360,376.0 372,376.5 384,377.0 396,377.2 408,377.4 420,377.4 432,377.3 444,377.1 456,376.7 468,376.2 480,375.5 492,374.8 504,373.9 516,372.9 528,371.8 540,370.6 552,369.3 564,367.9 576,366.5 588,365.1 600,363.7 612,362.2 624,360.8 636,359.4 648,358.0 660,356.7 672,355.5 684,354.4 696,353.4 708,352.5 720,351.8 732,351.2 744,350.7 756,350.4 768,350.3 780,350.4 792,350.6 804,351.0 816,351.6 828,352.3 840,353.2 852,354.3 864,355.5 876,356.8 888,358.3 900,359.8 912,361.5 924,363.2 936,365.0 948,366.8 960,368.6 972,370.4 984,372.2 996,373.9 1008,375.6 1020,377.1 1032,378.6 1044,379.9 1056,381.1 1068,382.1 1080,382.9 1092,383.6 1104,384.1 1116,384.3 1128,384.4 1140,384.2 1152,383.8 1164,383.2 1176,382.4 1188,381.5 1200,380.3" fill="none" stroke="#E7C46A" stroke-width="1" opacity="0.20"/><polyline points="0,391.4 12,391.1 24,390.7 36,390.3 48,389.7 60,389.1 72,388.4 84,387.6 96,386.8 108,385.9 120,385.0 132,384.0 144,383.1 156,382.1 168,381.1 180,380.2 192,379.3 204,378.5 216,377.7 228,377.0 240,376.4 252,375.9 264,375.5 276,375.2 288,375.1 300,375.1 312,375.2 324,375.4 336,375.8 348,376.3 360,376.9 372,377.7 384,378.5 396,379.5 408,380.5 420,381.7 432,382.9 444,384.1 456,385.4 468,386.7 480,388.0 492,389.2 504,390.5 516,391.7 528,392.8 540,393.8 552,394.8 564,395.6 576,396.2 588,396.8 600,397.2 612,397.4 624,397.5 636,397.4 648,397.1 660,396.6 672,396.0 684,395.2 696,394.3 708,393.3 720,392.1 732,390.7 744,389.3 756,387.8 768,386.3 780,384.7 792,383.0 804,381.4 816,379.8 828,378.2 840,376.7 852,375.3 864,374.0 876,372.8 888,371.8 900,370.9 912,370.2 924,369.7 936,369.3 948,369.2 960,369.3 972,369.6 984,370.1 996,370.8 1008,371.7 1020,372.8 1032,374.0 1044,375.4 1056,377.0 1068,378.7 1080,380.5 1092,382.3 1104,384.2 1116,386.2 1128,388.2 1140,390.1 1152,392.0 1164,393.8 1176,395.6 1188,397.2 1200,398.6" fill="none" stroke="#8FD0DC" stroke-width="1" opacity="0.19"/><polyline points="0,405.9 12,405.3 24,404.7 36,404.0 48,403.3 60,402.6 72,401.9 84,401.3 96,400.6 108,399.9 120,399.3 132,398.7 144,398.1 156,397.6 168,397.1 180,396.7 192,396.3 204,396.0 216,395.8 228,395.7 240,395.6 252,395.7 264,395.8 276,396.0 288,396.3 300,396.7 312,397.1 324,397.7 336,398.3 348,398.9 360,399.7 372,400.5 384,401.3 396,402.2 408,403.2 420,404.1 432,405.1 444,406.1 456,407.1 468,408.1 480,409.0 492,410.0 504,410.8 516,411.7 528,412.4 540,413.1 552,413.7 564,414.3 576,414.7 588,415.0 600,415.3 612,415.4 624,415.4 636,415.3 648,415.1 660,414.8 672,414.3 684,413.8 696,413.1 708,412.4 720,411.5 732,410.6 744,409.6 756,408.5 768,407.3 780,406.1 792,404.9 804,403.6 816,402.3 828,401.0 840,399.8 852,398.5 864,397.3 876,396.1 888,395.0 900,394.0 912,393.0 924,392.2 936,391.4 948,390.8 960,390.3 972,389.9 984,389.6 996,389.5 1008,389.5 1020,389.7 1032,390.0 1044,390.5 1056,391.1 1068,391.8 1080,392.7 1092,393.6 1104,394.7 1116,395.9 1128,397.2 1140,398.6 1152,400.1 1164,401.6 1176,403.1 1188,404.7 1200,406.3" fill="none" stroke="#8FD0DC" stroke-width="1" opacity="0.17"/><polyline points="0,417.6 12,417.8 24,418.0 36,418.4 48,418.8 60,419.2 72,419.8 84,420.4 96,421.1 108,421.9 120,422.7 132,423.5 144,424.3 156,425.1 168,425.9 180,426.7 192,427.5 204,428.2 216,428.9 228,429.5 240,430.0 252,430.4 264,430.7 276,431.0 288,431.1 300,431.0 312,430.9 324,430.7 336,430.3 348,429.8 360,429.2 372,428.5 384,427.7 396,426.9 408,425.9 420,424.9 432,423.8 444,422.8 456,421.7 468,420.6 480,419.5 492,418.4 504,417.5 516,416.5 528,415.7 540,415.0 552,414.3 564,413.8 576,413.4 588,413.2 600,413.1 612,413.1 624,413.4 636,413.7 648,414.2 660,414.9 672,415.6 684,416.5 696,417.6 708,418.7 720,419.9 732,421.2 744,422.5 756,423.9 768,425.2 780,426.6 792,427.9 804,429.2 816,430.4 828,431.5 840,432.5 852,433.4 864,434.2 876,434.8 888,435.2 900,435.5 912,435.6 924,435.5 936,435.2 948,434.7 960,434.1 972,433.2 984,432.3 996,431.2 1008,429.9 1020,428.5 1032,427.1 1044,425.5 1056,423.9 1068,422.3 1080,420.6 1092,419.0 1104,417.4 1116,415.9 1128,414.5 1140,413.2 1152,412.0 1164,411.0 1176,410.1 1188,409.4 1200,408.9" fill="none" stroke="#E7C46A" stroke-width="1" opacity="0.16"/><polyline points="0,447.5 12,447.6 24,447.6 36,447.5 48,447.3 60,447.1 72,446.8 84,446.5 96,446.1 108,445.6 120,445.0 132,444.5 144,443.8 156,443.2 168,442.5 180,441.8 192,441.0 204,440.3 216,439.6 228,438.9 240,438.3 252,437.6 264,437.1 276,436.6 288,436.1 300,435.7 312,435.5 324,435.3 336,435.1 348,435.1 360,435.2 372,435.4 384,435.7 396,436.0 408,436.5 420,437.1 432,437.7 444,438.4 456,439.2 468,440.0 480,440.9 492,441.8 504,442.8 516,443.7 528,444.7 540,445.6 552,446.5 564,447.4 576,448.3 588,449.0 600,449.7 612,450.3 624,450.8 636,451.2 648,451.5 660,451.7 672,451.8 684,451.7 696,451.5 708,451.2 720,450.8 732,450.2 744,449.6 756,448.8 768,447.9 780,447.0 792,446.0 804,444.9 816,443.7 828,442.6 840,441.4 852,440.2 864,439.0 876,437.8 888,436.7 900,435.7 912,434.7 924,433.8 936,433.0 948,432.3 960,431.8 972,431.3 984,431.1 996,430.9 1008,430.9 1020,431.1 1032,431.4 1044,431.9 1056,432.5 1068,433.3 1080,434.1 1092,435.1 1104,436.3 1116,437.5 1128,438.7 1140,440.1 1152,441.5 1164,442.9 1176,444.3 1188,445.8 1200,447.2" fill="none" stroke="#8FD0DC" stroke-width="1" opacity="0.15"/><polyline points="0,460.9 12,460.3 24,459.7 36,459.2 48,458.6 60,458.1 72,457.7 84,457.3 96,457.0 108,456.7 120,456.5 132,456.4 144,456.4 156,456.5 168,456.7 180,457.0 192,457.3 204,457.8 216,458.3 228,458.9 240,459.6 252,460.3 264,461.0 276,461.8 288,462.6 300,463.4 312,464.1 324,464.9 336,465.6 348,466.2 360,466.8 372,467.3 384,467.7 396,468.1 408,468.3 420,468.4 432,468.3 444,468.2 456,467.9 468,467.6 480,467.1 492,466.5 504,465.8 516,465.0 528,464.2 540,463.2 552,462.3 564,461.3 576,460.3 588,459.3 600,458.4 612,457.4 624,456.6 636,455.8 648,455.0 660,454.4 672,453.9 684,453.6 696,453.3 708,453.3 720,453.3 732,453.5 744,453.8 756,454.3 768,454.9 780,455.7 792,456.5 804,457.5 816,458.5 828,459.7 840,460.8 852,462.0 864,463.2 876,464.4 888,465.6 900,466.7 912,467.7 924,468.7 936,469.5 948,470.2 960,470.8 972,471.2 984,471.4 996,471.5 1008,471.5 1020,471.2 1032,470.8 1044,470.2 1056,469.4 1068,468.5 1080,467.5 1092,466.4 1104,465.1 1116,463.8 1128,462.5 1140,461.0 1152,459.6 1164,458.2 1176,456.9 1188,455.6 1200,454.4" fill="none" stroke="#8FD0DC" stroke-width="1" opacity="0.14"/><polyline points="0,477.1 12,477.0 24,476.9 36,476.9 48,477.0 60,477.0 72,477.1 84,477.3 96,477.5 108,477.7 120,477.9 132,478.2 144,478.6 156,478.9 168,479.3 180,479.7 192,480.2 204,480.6 216,481.1 228,481.6 240,482.0 252,482.5 264,483.0 276,483.4 288,483.9 300,484.3 312,484.7 324,485.1 336,485.4 348,485.7 360,485.9 372,486.1 384,486.3 396,486.4 408,486.5 420,486.5 432,486.4 444,486.3 456,486.1 468,485.9 480,485.6 492,485.3 504,484.9 516,484.4 528,484.0 540,483.5 552,482.9 564,482.3 576,481.7 588,481.1 600,480.4 612,479.8 624,479.1 636,478.5 648,477.9 660,477.3 672,476.7 684,476.1 696,475.6 708,475.1 720,474.7 732,474.3 744,474.0 756,473.7 768,473.5 780,473.4 792,473.3 804,473.4 816,473.4 828,473.6 840,473.8 852,474.2 864,474.5 876,475.0 888,475.5 900,476.0 912,476.7 924,477.3 936,478.1 948,478.8 960,479.6 972,480.4 984,481.2 996,482.0 1008,482.8 1020,483.7 1032,484.5 1044,485.2 1056,486.0 1068,486.7 1080,487.3 1092,487.9 1104,488.4 1116,488.9 1128,489.3 1140,489.6 1152,489.9 1164,490.0 1176,490.1 1188,490.0 1200,489.9" fill="none" stroke="#E7C46A" stroke-width="1" opacity="0.12"/><polyline points="0,499.6 12,499.9 24,500.2 36,500.4 48,500.7 60,501.0 72,501.3 84,501.6 96,501.9 108,502.2 120,502.4 132,502.7 144,502.9 156,503.1 168,503.3 180,503.5 192,503.7 204,503.8 216,503.9 228,504.0 240,504.0 252,504.0 264,504.0 276,503.9 288,503.8 300,503.7 312,503.5 324,503.3 336,503.1 348,502.9 360,502.6 372,502.3 384,501.9 396,501.6 408,501.2 420,500.8 432,500.4 444,500.0 456,499.6 468,499.1 480,498.7 492,498.3 504,497.9 516,497.4 528,497.0 540,496.7 552,496.3 564,495.9 576,495.6 588,495.3 600,495.1 612,494.9 624,494.7 636,494.5 648,494.4 660,494.4 672,494.4 684,494.4 696,494.5 708,494.6 720,494.8 732,495.0 744,495.2 756,495.5 768,495.9 780,496.2 792,496.6 804,497.1 816,497.6 828,498.1 840,498.6 852,499.1 864,499.7 876,500.3 888,500.8 900,501.4 912,502.0 924,502.5 936,503.1 948,503.6 960,504.1 972,504.6 984,505.1 996,505.5 1008,505.9 1020,506.2 1032,506.5 1044,506.8 1056,507.0 1068,507.1 1080,507.2 1092,507.3 1104,507.2 1116,507.2 1128,507.0 1140,506.8 1152,506.6 1164,506.3 1176,505.9 1188,505.5 1200,505.1" fill="none" stroke="#8FD0DC" stroke-width="1" opacity="0.11"/></svg>