<svg xmlns="http://www.w3.org/2000/svg" viewBox="0 0 1200 500" preserveAspectRatio="xMidYMid slice"><polyline points="0,41.3 10,41.1 20,40.9 30,40.7 40,40.5 50,40.4 60,40.3 70,40.1 80,40.0 90,40.0 100,39.9 110,39.9 120,39.8 130,39.9 140,39.9 150,39.9 160,40.0 170,40.1 180,40.2 190,40.4 200,40.5 210,40.7 220,40.9 230,41.1 240,41.4 250,41.6 260,41.9 270,42.2 280,42.5 290,42.8 300,43.1 310,43.4 320,43.8 330,44.1 340,44.4 350,44.8 360,45.1 370,45.5 380,45.8 390,46.1 400,46.5 410,46.8 420,47.1 430,47.4 440,47.6 450,47.9 460,48.1 470,48.4 480,48.6 490,48.7 500,48.9 510,49.0 520,49.1 530,49.2 540,49.3 550,49.3 560,49.3 570,49.3 580,49.2 590,49.1 600,49.0 610,48.8 620,48.7 630,48.5 640,48.2 650,48.0 660,47.7 670,47.4 680,47.1 690,46.8 700,46.4 710,46.1 720,45.7 730,45.3 740,44.9 750,44.5 760,44.0 770,43.6 780,43.2 790,42.8 800,42.3 810,41.9 820,41.5 830,41.1 840,40.7 850,40.3 860,40.0 870,39.6 880,39.3 890,39.0 900,38.7 910,38.5 920,38.3 930,38.1 940,37.9 950,37.8 960,37.7 970,37.6 980,37.6 990,37.6 1000,37.6 1010,37.7 1020,37.8 1030,37.9 1040,38.1 1050,38.3 1060,38.5 1070,38.8 1080,39.1 1090,39.4 1100,39.7 1110,40.1 1120,40.5 1130,40.9 1140,41.4 1150,41.8 1160,42.3 1170,42.8 1180,43.3 1190,43.8 1200,44.3" fill="none" stroke="#FFFFFF" stroke-width="1" opacity="0.05" stroke-linecap="round"/><polyline points="0,71.9 10,72.0 20,72.2 30,72.4 40,72.6 50,72.9 60,73.2 70,73.5 80,73.9 90,74.3 100,74.8 110,75.3 120,75.7 130,76.3 140,76.8 150,77.4 160,77.9 170,78.5 180,79.1 190,79.7 200,80.3 210,80.8 220,81.4 230,82.0 240,82.5 250,83.0 260,83.5 270,84.0 280,84.5 290,84.9 300,85.3 310,85.6 320,85.9 330,86.2 340,86.4 350,86.6 360,86.7 370,86.8 380,86.8 390,86.8 400,86.7 410,86.5 420,86.4 430,86.1 440,85.9 450,85.5 460,85.1 470,84.7 480,84.3 490,83.8 500,83.2 510,82.6 520,82.0 530,81.4 540,80.7 550,80.0 560,79.3 570,78.6 580,77.9 590,77.2 600,76.4 610,75.7 620,75.0 630,74.3 640,73.6 650,73.0 660,72.3 670,71.7 680,71.2 690,70.6 700,70.1 710,69.7 720,69.3 730,68.9 740,68.6 750,68.4 760,68.2 770,68.1 780,68.0 790,68.0 800,68.1 810,68.2 820,68.4 830,68.6 840,69.0 850,69.3 860,69.7 870,70.2 880,70.8 890,71.3 900,72.0 910,72.6 920,73.4 930,74.1 940,74.9 950,75.7 960,76.5 970,77.4 980,78.2 990,79.1 1000,80.0 1010,80.8 1020,81.7 1030,82.6 1040,83.4 1050,84.2 1060,85.0 1070,85.7 1080,86.4 1090,87.1 1100,87.7 1110,88.2 1120,88.8 1130,89.2 1140,89.6 1150,89.9 1160,90.2 1170,90.3 1180,90.5 1190,90.5 1200,90.5" fill="none" stroke="#FFFFFF" stroke-width="1" opacity="0.07" stroke-linecap="round"/><polyline points="0,103.1 10,103.0 20,103.0 30,103.0 40,103.1 50,103.2 60,103.4 70,103.7 80,104.0 90,104.4 100,104.8 110,105.3 120,105.8 130,106.4 140,107.1 150,107.7 160,108.4 170,109.2 180,109.9 190,110.7 200,111.6 210,112.4 220,113.2 230,114.1 240,114.9 250,115.8 260,116.6 270,117.5 280,118.3 290,119.0 300,119.8 310,120.5 320,121.2 330,121.8 340,122.4 350,123.0 360,123.5 370,123.9 380,124.2 390,124.5 400,124.8 410,124.9 420,125.0 430,125.0 440,125.0 450,124.8 460,124.6 470,124.4 480,124.0 490,123.6 500,123.1 510,122.5 520,121.9 530,121.2 540,120.5 550,119.7 560,118.8 570,117.9 580,117.0 590,116.0 600,115.0 610,114.0 620,113.0 630,111.9 640,110.9 650,109.8 660,108.8 670,107.7 680,106.7 690,105.7 700,104.8 710,103.8 720,103.0 730,102.1 740,101.4 750,100.7 760,100.0 770,99.4 780,98.9 790,98.5 800,98.2 810,97.9 820,97.7 830,97.6 840,97.6 850,97.7 860,97.9 870,98.2 880,98.5 890,99.0 900,99.5 910,100.1 920,100.8 930,101.6 940,102.4 950,103.3 960,104.3 970,105.3 980,106.4 990,107.5 1000,108.7 1010,109.9 1020,111.1 1030,112.4 1040,113.6 1050,114.9 1060,116.1 1070,117.4 1080,118.6 1090,119.8 1100,121.0 1110,122.1 1120,123.2 1130,124.2 1140,125.2 1150,126.1 1160,126.9 1170,127.7 1180,128.4 1190,128.9 1200,129.4" fill="none" stroke="#FFFFFF" stroke-width="1" opacity="0.08" stroke-linecap="round"/><polyline points="0,149.3 10,150.1 20,150.9 30,151.7 40,152.5 50,153.3 60,154.1 70,154.8 80,155.6 90,156.3 100,156.9 110,157.6 120,158.2 130,158.7 140,159.2 150,159.7 160,160.1 170,160.4 180,160.7 190,161.0 200,161.1 210,161.3 220,161.3 230,161.3 240,161.3 250,161.1 260,160.9 270,160.7 280,160.3 290,159.9 300,159.5 310,159.0 320,158.4 330,157.8 340,157.1 350,156.4 360,155.6 370,154.8 380,153.9 390,153.0 400,152.0 410,151.0 420,150.0 430,149.0 440,147.9 450,146.9 460,145.8 470,144.7 480,143.6 490,142.5 500,141.5 510,140.4 520,139.3 530,138.3 540,137.3 550,136.4 560,135.5 570,134.6 580,133.7 590,133.0 600,132.2 610,131.6 620,130.9 630,130.4 640,129.9 650,129.5 660,129.2 670,128.9 680,128.8 690,128.7 700,128.6 710,128.7 720,128.8 730,129.1 740,129.4 750,129.7 760,130.2 770,130.8 780,131.4 790,132.1 800,132.8 810,133.7 820,134.6 830,135.5 840,136.6 850,137.6 860,138.8 870,139.9 880,141.1 890,142.4 900,143.7 910,145.0 920,146.3 930,147.7 940,149.0 950,150.4 960,151.7 970,153.0 980,154.4 990,155.7 1000,156.9 1010,158.2 1020,159.4 1030,160.6 1040,161.7 1050,162.7 1060,163.7 1070,164.6 1080,165.5 1090,166.3 1100,167.0 1110,167.6 1120,168.1 1130,168.6 1140,168.9 1150,169.2 1160,169.3 1170,169.4 1180,169.4 1190,169.3 1200,169.0" fill="none" stroke="#FFFFFF" stroke-width="1" opacity="0.10" stroke-linecap="round"/><polyline points="0,175.9 10,176.9 20,178.0 30,179.0 40,180.1 50,181.2 60,182.3 70,183.5 80,184.6 90,185.7 100,186.9 110,188.0 120,189.1 130,190.1 140,191.2 150,192.2 160,193.1 170,194.0 180,194.9 190,195.7 200,196.4 210,197.1 220,197.7 230,198.2 240,198.7 250,199.0 260,199.3 270,199.5 280,199.6 290,199.6 300,199.5 310,199.4 320,199.1 330,198.7 340,198.3 350,197.7 360,197.1 370,196.4 380,195.6 390,194.7 400,193.8 410,192.7 420,191.6 430,190.5 440,189.3 450,188.0 460,186.7 470,185.3 480,183.9 490,182.5 500,181.1 510,179.6 520,178.2 530,176.7 540,175.2 550,173.8 560,172.4 570,171.0 580,169.7 590,168.4 600,167.1 610,165.9 620,164.8 630,163.8 640,162.8 650,161.9 660,161.1 670,160.4 680,159.8 690,159.3 700,158.9 710,158.6 720,158.4 730,158.4 740,158.4 750,158.6 760,158.9 770,159.2 780,159.8 790,160.4 800,161.1 810,161.9 820,162.9 830,163.9 840,165.1 850,166.3 860,167.6 870,169.0 880,170.5 890,172.0 900,173.6 910,175.2 920,176.9 930,178.7 940,180.4 950,182.2 960,184.0 970,185.8 980,187.5 990,189.3 1000,191.0 1010,192.7 1020,194.4 1030,196.0 1040,197.5 1050,199.0 1060,200.4 1070,201.7 1080,203.0 1090,204.1 1100,205.1 1110,206.0 1120,206.8 1130,207.5 1140,208.1 1150,208.5 1160,208.8 1170,208.9 1180,209.0 1190,208.8 1200,208.6" fill="none" stroke="#FFFFFF" stroke-width="1" opacity="0.12" stroke-linecap="round"/><polyline points="0,205.0 10,205.8 20,206.6 30,207.5 40,208.5 50,209.4 60,210.4 70,211.5 80,212.5 90,213.6 100,214.7 110,215.8 120,217.0 130,218.1 140,219.3 150,220.4 160,221.6 170,222.7 180,223.9 190,225.0 200,226.1 210,227.2 220,228.2 230,229.3 240,230.3 250,231.2 260,232.1 270,233.0 280,233.8 290,234.6 300,235.3 310,235.9 320,236.5 330,237.0 340,237.5 350,237.9 360,238.2 370,238.5 380,238.6 390,238.7 400,238.7 410,238.7 420,238.5 430,238.3 440,238.0 450,237.6 460,237.2 470,236.6 480,236.0 490,235.3 500,234.6 510,233.8 520,232.9 530,231.9 540,230.8 550,229.8 560,228.6 570,227.4 580,226.1 590,224.8 600,223.5 610,222.1 620,220.6 630,219.2 640,217.7 650,216.2 660,214.7 670,213.1 680,211.6 690,210.1 700,208.5 710,207.0 720,205.5 730,204.0 740,202.5 750,201.1 760,199.7 770,198.4 780,197.1 790,195.8 800,194.6 810,193.5 820,192.4 830,191.4 840,190.4 850,189.6 860,188.8 870,188.1 880,187.5 890,187.0 900,186.6 910,186.2 920,186.0 930,185.9 940,185.8 950,185.9 960,186.1 970,186.3 980,186.7 990,187.2 1000,187.7 1010,188.4 1020,189.2 1030,190.0 1040,191.0 1050,192.0 1060,193.2 1070,194.4 1080,195.7 1090,197.1 1100,198.5 1110,200.0 1120,201.6 1130,203.2 1140,204.9 1150,206.7 1160,208.5 1170,210.3 1180,212.2 1190,214.1 1200,216.0" fill="none" stroke="#FFFFFF" stroke-width="1" opacity="0.13" stroke-linecap="round"/><polyline points="0,254.1 10,252.9 20,251.6 30,250.3 40,249.0 50,247.6 60,246.3 70,245.0 80,243.6 90,242.3 100,241.0 110,239.7 120,238.4 130,237.1 140,235.9 150,234.7 160,233.6 170,232.5 180,231.5 190,230.5 200,229.6 210,228.7 220,227.9 230,227.2 240,226.6 250,226.0 260,225.6 270,225.2 280,224.9 290,224.7 300,224.6 310,224.6 320,224.7 330,224.9 340,225.2 350,225.5 360,226.0 370,226.6 380,227.2 390,228.0 400,228.9 410,229.8 420,230.8 430,231.9 440,233.1 450,234.4 460,235.7 470,237.1 480,238.6 490,240.1 500,241.7 510,243.3 520,245.0 530,246.7 540,248.4 550,250.2 560,251.9 570,253.7 580,255.5 590,257.3 600,259.1 610,260.8 620,262.6 630,264.3 640,265.9 650,267.5 660,269.1 670,270.6 680,272.1 690,273.5 700,274.8 710,276.0 720,277.1 730,278.2 740,279.1 750,280.0 760,280.7 770,281.4 780,281.9 790,282.3 800,282.6 810,282.8 820,282.8 830,282.7 840,282.6 850,282.2 860,281.8 870,281.2 880,280.5 890,279.7 900,278.8 910,277.8 920,276.6 930,275.4 940,274.0 950,272.5 960,271.0 970,269.3 980,267.6 990,265.7 1000,263.8 1010,261.9 1020,259.8 1030,257.8 1040,255.6 1050,253.5 1060,251.3 1070,249.1 1080,246.8 1090,244.6 1100,242.4 1110,240.2 1120,238.0 1130,235.8 1140,233.7 1150,231.6 1160,229.5 1170,227.5 1180,225.6 1190,223.8 1200,222.1" fill="none" stroke="#FFFFFF" stroke-width="1" opacity="0.15" stroke-linecap="round"/><polyline points="0,278.6 10,277.2 20,275.8 30,274.4 40,273.0 50,271.7 60,270.4 70,269.2 80,268.0 90,266.9 100,265.9 110,264.9 120,264.0 130,263.2 140,262.5 150,261.9 160,261.4 170,261.0 180,260.7 190,260.5 200,260.4 210,260.4 220,260.6 230,260.8 240,261.2 250,261.7 260,262.3 270,263.0 280,263.9 290,264.8 300,265.9 310,267.0 320,268.2 330,269.6 340,271.0 350,272.5 360,274.0 370,275.7 380,277.4 390,279.1 400,280.9 410,282.7 420,284.6 430,286.4 440,288.3 450,290.2 460,292.1 470,293.9 480,295.8 490,297.5 500,299.3 510,301.0 520,302.6 530,304.2 540,305.7 550,307.1 560,308.4 570,309.6 580,310.7 590,311.6 600,312.5 610,313.2 620,313.8 630,314.3 640,314.6 650,314.8 660,314.8 670,314.7 680,314.5 690,314.1 700,313.6 710,312.9 720,312.1 730,311.1 740,310.0 750,308.8 760,307.4 770,305.9 780,304.3 790,302.6 800,300.8 810,298.9 820,296.9 830,294.9 840,292.7 850,290.5 860,288.3 870,286.0 880,283.7 890,281.4 900,279.1 910,276.7 920,274.4 930,272.2 940,269.9 950,267.7 960,265.6 970,263.5 980,261.6 990,259.7 1000,257.9 1010,256.2 1020,254.7 1030,253.2 1040,251.9 1050,250.8 1060,249.8 1070,249.0 1080,248.3 1090,247.8 1100,247.4 1110,247.3 1120,247.3 1130,247.4 1140,247.8 1150,248.3 1160,249.0 1170,249.9 1180,250.9 1190,252.2 1200,253.5" fill="none" stroke="#FFFFFF" stroke-width="1" opacity="0.15" stroke-linecap="round"/><polyline points="0,320.2 10,321.3 20,322.4 30,323.5 40,324.6 50,325.7 60,326.8 70,327.9 80,328.9 90,330.0 100,331.0 110,331.9 120,332.9 130,333.8 140,334.6 150,335.4 160,336.1 170,336.8 180,337.5 190,338.0 200,338.5 210,339.0 220,339.3 230,339.6 240,339.9 250,340.0 260,340.1 270,340.1 280,340.0 290,339.8 300,339.6 310,339.2 320,338.8 330,338.3 340,337.8 350,337.1 360,336.4 370,335.6 380,334.7 390,333.8 400,332.8 410,331.8 420,330.6 430,329.5 440,328.2 450,327.0 460,325.6 470,324.3 480,322.9 490,321.5 500,320.0 510,318.5 520,317.1 530,315.6 540,314.1 550,312.6 560,311.1 570,309.6 580,308.2 590,306.7 600,305.3 610,304.0 620,302.6 630,301.4 640,300.1 650,299.0 660,297.9 670,296.8 680,295.8 690,294.9 700,294.1 710,293.4 720,292.7 730,292.2 740,291.7 750,291.3 760,291.0 770,290.9 780,290.8 790,290.8 800,290.9 810,291.2 820,291.5 830,291.9 840,292.4 850,293.1 860,293.8 870,294.6 880,295.6 890,296.6 900,297.7 910,298.9 920,300.2 930,301.5 940,303.0 950,304.5 960,306.0 970,307.6 980,309.3 990,311.0 1000,312.8 1010,314.6 1020,316.4 1030,318.3 1040,320.2 1050,322.0 1060,323.9 1070,325.8 1080,327.7 1090,329.5 1100,331.3 1110,333.1 1120,334.9 1130,336.6 1140,338.2 1150,339.8 1160,341.4 1170,342.8 1180,344.2 1190,345.5 1200,346.7" fill="none" stroke="#FFFFFF" stroke-width="1" opacity="0.13" stroke-linecap="round"/><polyline points="0,368.1 10,367.9 20,367.7 30,367.3 40,366.9 50,366.4 60,365.8 70,365.1 80,364.3 90,363.5 100,362.5 110,361.5 120,360.5 130,359.4 140,358.2 150,357.0 160,355.7 170,354.5 180,353.1 190,351.8 200,350.5 210,349.1 220,347.8 230,346.5 240,345.2 250,343.9 260,342.7 270,341.6 280,340.4 290,339.4 300,338.4 310,337.5 320,336.6 330,335.9 340,335.3 350,334.7 360,334.3 370,333.9 380,333.7 390,333.6 400,333.6 410,333.7 420,333.9 430,334.2 440,334.7 450,335.3 460,336.0 470,336.8 480,337.6 490,338.6 500,339.7 510,340.9 520,342.2 530,343.5 540,344.9 550,346.4 560,348.0 570,349.5 580,351.1 590,352.8 600,354.4 610,356.1 620,357.8 630,359.4 640,361.0 650,362.6 660,364.2 670,365.7 680,367.1 690,368.5 700,369.8 710,371.0 720,372.1 730,373.1 740,374.0 750,374.8 760,375.4 770,375.9 780,376.3 790,376.6 800,376.7 810,376.7 820,376.6 830,376.3 840,375.8 850,375.3 860,374.5 870,373.7 880,372.7 890,371.6 900,370.4 910,369.1 920,367.6 930,366.1 940,364.5 950,362.8 960,361.0 970,359.1 980,357.2 990,355.3 1000,353.3 1010,351.3 1020,349.4 1030,347.4 1040,345.4 1050,343.5 1060,341.6 1070,339.7 1080,337.9 1090,336.2 1100,334.6 1110,333.1 1120,331.7 1130,330.4 1140,329.2 1150,328.2 1160,327.2 1170,326.5 1180,325.9 1190,325.4 1200,325.1" fill="none" stroke="#FFFFFF" stroke-width="1" opacity="0.12" stroke-linecap="round"/><polyline points="0,374.9 10,374.9 20,375.0 30,375.1 40,375.2 50,375.4 60,375.6 70,375.9 80,376.2 90,376.6 100,377.0 110,377.4 120,377.9 130,378.5 140,379.0 150,379.6 160,380.3 170,381.0 180,381.7 190,382.4 200,383.1 210,383.9 220,384.7 230,385.6 240,386.4 250,387.2 260,388.1 270,389.0 280,389.9 290,390.7 300,391.6 310,392.5 320,393.3 330,394.2 340,395.0 350,395.8 360,396.6 370,397.4 380,398.1 390,398.8 400,399.5 410,400.2 420,400.8 430,401.3 440,401.9 450,402.3 460,402.8 470,403.2 480,403.5 490,403.8 500,404.0 510,404.1 520,404.2 530,404.3 540,404.3 550,404.2 560,404.1 570,403.9 580,403.6 590,403.3 600,402.9 610,402.5 620,402.0 630,401.5 640,400.9 650,400.2 660,399.5 670,398.8 680,398.0 690,397.1 700,396.2 710,395.3 720,394.4 730,393.4 740,392.3 750,391.3 760,390.2 770,389.1 780,388.0 790,386.9 800,385.7 810,384.6 820,383.5 830,382.3 840,381.2 850,380.1 860,379.0 870,377.9 880,376.8 890,375.8 900,374.8 910,373.9 920,372.9 930,372.1 940,371.2 950,370.4 960,369.7 970,369.0 980,368.4 990,367.9 1000,367.4 1010,366.9 1020,366.6 1030,366.3 1040,366.1 1050,365.9 1060,365.8 1070,365.9 1080,365.9 1090,366.1 1100,366.3 1110,366.6 1120,367.0 1130,367.4 1140,368.0 1150,368.6 1160,369.2 1170,370.0 1180,370.8 1190,371.6 1200,372.6" fill="none" stroke="#FFFFFF" stroke-width="1" opacity="0.10" stroke-linecap="round"/><polyline points="0,412.5 10,412.6 20,412.7 30,412.9 40,413.1 50,413.4 60,413.7 70,414.0 80,414.3 90,414.7 100,415.1 110,415.5 120,416.0 130,416.5 140,417.0 150,417.5 160,418.1 170,418.6 180,419.2 190,419.8 200,420.4 210,421.1 220,421.7 230,422.4 240,423.0 250,423.7 260,424.3 270,425.0 280,425.6 290,426.3 300,426.9 310,427.5 320,428.1 330,428.7 340,429.3 350,429.9 360,430.4 370,430.9 380,431.4 390,431.9 400,432.3 410,432.7 420,433.0 430,433.4 440,433.6 450,433.9 460,434.1 470,434.3 480,434.4 490,434.5 500,434.5 510,434.5 520,434.5 530,434.4 540,434.2 550,434.0 560,433.8 570,433.5 580,433.2 590,432.9 600,432.5 610,432.0 620,431.5 630,431.0 640,430.5 650,429.9 660,429.2 670,428.6 680,427.9 690,427.2 700,426.4 710,425.6 720,424.9 730,424.1 740,423.2 750,422.4 760,421.5 770,420.7 780,419.8 790,419.0 800,418.1 810,417.3 820,416.4 830,415.6 840,414.8 850,414.0 860,413.2 870,412.4 880,411.7 890,411.0 900,410.3 910,409.7 920,409.0 930,408.5 940,407.9 950,407.5 960,407.0 970,406.6 980,406.3 990,406.0 1000,405.7 1010,405.5 1020,405.4 1030,405.3 1040,405.3 1050,405.3 1060,405.4 1070,405.5 1080,405.7 1090,406.0 1100,406.3 1110,406.7 1120,407.1 1130,407.6 1140,408.1 1150,408.7 1160,409.3 1170,410.0 1180,410.7 1190,411.4 1200,412.2" fill="none" stroke="#FFFFFF" stroke-width="1" opacity="0.08" stroke-linecap="round"/><polyline points="0,451.5 10,451.2 20,450.9 30,450.6 40,450.3 50,450.1 60,449.8 70,449.6 80,449.4 90,449.2 100,449.0 110,448.9 120,448.8 130,448.7 140,448.6 150,448.6 160,448.6 170,448.6 180,448.6 190,448.7 200,448.8 210,448.9 220,449.0 230,449.2 240,449.4 250,449.6 260,449.8 270,450.1 280,450.4 290,450.7 300,451.0 310,451.3 320,451.7 330,452.1 340,452.5 350,452.9 360,453.4 370,453.8 380,454.3 390,454.8 400,455.3 410,455.7 420,456.2 430,456.8 440,457.3 450,457.8 460,458.3 470,458.8 480,459.3 490,459.8 500,460.3 510,460.7 520,461.2 530,461.7 540,462.1 550,462.5 560,462.9 570,463.3 580,463.7 590,464.0 600,464.3 610,464.6 620,464.9 630,465.1 640,465.3 650,465.5 660,465.6 670,465.8 680,465.8 690,465.9 700,465.9 710,465.9 720,465.8 730,465.7 740,465.6 750,465.5 760,465.3 770,465.1 780,464.8 790,464.5 800,464.2 810,463.9 820,463.5 830,463.1 840,462.6 850,462.2 860,461.7 870,461.2 880,460.6 890,460.1 900,459.5 910,458.9 920,458.3 930,457.7 940,457.1 950,456.5 960,455.8 970,455.2 980,454.5 990,453.9 1000,453.2 1010,452.6 1020,451.9 1030,451.3 1040,450.7 1050,450.1 1060,449.5 1070,448.9 1080,448.4 1090,447.8 1100,447.3 1110,446.8 1120,446.4 1130,446.0 1140,445.6 1150,445.2 1160,444.9 1170,444.6 1180,444.3 1190,444.1 1200,443.9" fill="none" stroke="#FFFFFF" stroke-width="1" opacity="0.07" stroke-linecap="round"/></svg>