<svg xmlns="http://www.w3.org/2000/svg" width="150" height="150" viewBox="0 0 150 150"><g fill="none" stroke="#E7C46A" stroke-width="1" stroke-opacity="0.085"><path d="M0.00,-48.00 L9.18,-22.17 L33.94,-33.94 L22.17,-9.18 L48.00,0.00 L22.17,9.18 L33.94,33.94 L9.18,22.17 L0.00,48.00 L-9.18,22.17 L-33.94,33.94 L-22.17,9.18 L-48.00,0.00 L-22.17,-9.18 L-33.94,-33.94 L-9.18,-22.17 Z"/><path d="M150.00,-48.00 L159.18,-22.17 L183.94,-33.94 L172.17,-9.18 L198.00,0.00 L172.17,9.18 L183.94,33.94 L159.18,22.17 L150.00,48.00 L140.82,22.17 L116.06,33.94 L127.83,9.18 L102.00,0.00 L127.83,-9.18 L116.06,-33.94 L140.82,-22.17 Z"/><path d="M0.00,102.00 L9.18,127.83 L33.94,116.06 L22.17,140.82 L48.00,150.00 L22.17,159.18 L33.94,183.94 L9.18,172.17 L0.00,198.00 L-9.18,172.17 L-33.94,183.94 L-22.17,159.18 L-48.00,150.00 L-22.17,140.82 L-33.94,116.06 L-9.18,127.83 Z"/><path d="M150.00,102.00 L159.18,127.83 L183.94,116.06 L172.17,140.82 L198.00,150.00 L172.17,159.18 L183.94,183.94 L159.18,172.17 L150.00,198.00 L140.82,172.17 L116.06,183.94 L127.83,159.18 L102.00,150.00 L127.83,140.82 L116.06,116.06 L140.82,127.83 Z"/><circle cx="75.0" cy="75.0" r="14" fill="none"/><circle cx="75.0" cy="75.0" r="2.4" fill="#E7C46A" stroke="none"/><path d="M75.0,-9 L84.0,0 L75.0,9 L66.0,0 Z"/><path d="M0,66.0 L9,75.0 L0,84.0 L-9,75.0 Z"/><path d="M150,66.0 L159,75.0 L150,84.0 L141,75.0 Z"/><path d="M75.0,141 L84.0,150 L75.0,159 L66.0,150 Z"/></g></svg>