<svg xmlns="http://www.w3.org/2000/svg" viewBox="0 0 400 400"><g fill="none" stroke="#E7C46A" stroke-width="1" stroke-opacity="0.9"><circle cx="200" cy="200" r="185" fill="none"/><path d="M200.00,20.00 L214.44,127.42 L268.88,33.70 L241.11,138.47 L327.28,72.72 L261.53,158.89 L366.30,131.12 L272.58,185.56 L380.00,200.00 L272.58,214.44 L366.30,268.88 L261.53,241.11 L327.28,327.28 L241.11,261.53 L268.88,366.30 L214.44,272.58 L200.00,380.00 L185.56,272.58 L131.12,366.30 L158.89,261.53 L72.72,327.28 L138.47,241.11 L33.70,268.88 L127.42,214.44 L20.00,200.00 L127.42,185.56 L33.70,131.12 L138.47,158.89 L72.72,72.72 L158.89,138.47 L131.12,33.70 L185.56,127.42 Z"/><circle cx="200" cy="200" r="132" fill="none"/><path d="M200.00,72.00 L224.49,140.87 L290.51,109.49 L259.13,175.51 L328.00,200.00 L259.13,224.49 L290.51,290.51 L224.49,259.13 L200.00,328.00 L175.51,259.13 L109.49,290.51 L140.87,224.49 L72.00,200.00 L140.87,175.51 L109.49,109.49 L175.51,140.87 Z"/><path d="M248.98,81.74 L245.25,154.75 L318.26,151.02 L264.00,200.00 L318.26,248.98 L245.25,245.25 L248.98,318.26 L200.00,264.00 L151.02,318.26 L154.75,245.25 L81.74,248.98 L136.00,200.00 L81.74,151.02 L154.75,154.75 L151.02,81.74 L200.00,136.00 Z"/><circle cx="200" cy="200" r="70" fill="none"/><path d="M200.00,134.00 L211.48,172.28 L246.67,153.33 L227.72,188.52 L266.00,200.00 L227.72,211.48 L246.67,246.67 L211.48,227.72 L200.00,266.00 L188.52,227.72 L153.33,246.67 L172.28,211.48 L134.00,200.00 L172.28,188.52 L153.33,153.33 L188.52,172.28 Z"/><circle cx="200" cy="200" r="20" fill="none"/><circle cx="200" cy="200" r="3" fill="#E7C46A" stroke="none"/><line x1="385.0" y1="200.0" x2="400.0" y2="200.0"/><line x1="370.9" y1="270.8" x2="384.8" y2="276.5"/><line x1="330.8" y1="330.8" x2="341.4" y2="341.4"/><line x1="270.8" y1="370.9" x2="276.5" y2="384.8"/><line x1="200.0" y1="385.0" x2="200.0" y2="400.0"/><line x1="129.2" y1="370.9" x2="123.5" y2="384.8"/><line x1="69.2" y1="330.8" x2="58.6" y2="341.4"/><line x1="29.1" y1="270.8" x2="15.2" y2="276.5"/><line x1="15.0" y1="200.0" x2="0.0" y2="200.0"/><line x1="29.1" y1="129.2" x2="15.2" y2="123.5"/><line x1="69.2" y1="69.2" x2="58.6" y2="58.6"/><line x1="129.2" y1="29.1" x2="123.5" y2="15.2"/><line x1="200.0" y1="15.0" x2="200.0" y2="0.0"/><line x1="270.8" y1="29.1" x2="276.5" y2="15.2"/><line x1="330.8" y1="69.2" x2="341.4" y2="58.6"/><line x1="370.9" y1="129.2" x2="384.8" y2="123.5"/></g></svg>