<svg xmlns="http://www.w3.org/2000/svg" width="480" height="54" viewBox="0 0 480 54"><polyline points="0,27.0 8,28.9 16,30.7 24,32.3 32,33.7 40,34.8 48,35.6 56,36.0 64,36.0 72,35.6 80,34.8 88,33.7 96,32.3 104,30.7 112,28.9 120,27.0 128,25.1 136,23.3 144,21.7 152,20.3 160,19.2 168,18.4 176,18.0 184,18.0 192,18.4 200,19.2 208,20.3 216,21.7 224,23.3 232,25.1 240,27.0 248,28.9 256,30.7 264,32.3 272,33.7 280,34.8 288,35.6 296,36.0 304,36.0 312,35.6 320,34.8 328,33.7 336,32.3 344,30.7 352,28.9 360,27.0 368,25.1 376,23.3 384,21.7 392,20.3 400,19.2 408,18.4 416,18.0 424,18.0 432,18.4 440,19.2 448,20.3 456,21.7 464,23.3 472,25.1 480,27.0" fill="none" stroke="#E7C46A" stroke-width="1.2" stroke-opacity="0.6" stroke-linecap="round"/><polyline points="0,27.0 8,25.8 16,24.6 24,23.5 32,22.5 40,21.8 48,21.3 56,21.0 64,21.0 72,21.3 80,21.8 88,22.5 96,23.5 104,24.6 112,25.8 120,27.0 128,28.2 136,29.4 144,30.5 152,31.5 160,32.2 168,32.7 176,33.0 184,33.0 192,32.7 200,32.2 208,31.5 216,30.5 224,29.4 232,28.2 240,27.0 248,25.8 256,24.6 264,23.5 272,22.5 280,21.8 288,21.3 296,21.0 304,21.0 312,21.3 320,21.8 328,22.5 336,23.5 344,24.6 352,25.8 360,27.0 368,28.2 376,29.4 384,30.5 392,31.5 400,32.2 408,32.7 416,33.0 424,33.0 432,32.7 440,32.2 448,31.5 456,30.5 464,29.4 472,28.2 480,27.0" fill="none" stroke="#8FD0DC" stroke-width="1.2" stroke-opacity="0.5" stroke-linecap="round"/><polyline points="0,37.7 8,38.6 16,39.0 24,38.9 32,38.2 40,37.1 48,35.5 56,33.5 64,31.3 72,28.9 80,26.4 88,23.9 96,21.5 104,19.4 112,17.7 120,16.3 128,15.4 136,15.0 144,15.1 152,15.8 160,16.9 168,18.5 176,20.5 184,22.7 192,25.1 200,27.6 208,30.1 216,32.5 224,34.6 232,36.3 240,37.7 248,38.6 256,39.0 264,38.9 272,38.2 280,37.1 288,35.5 296,33.5 304,31.3 312,28.9 320,26.4 328,23.9 336,21.5 344,19.4 352,17.7 360,16.3 368,15.4 376,15.0 384,15.1 392,15.8 400,16.9 408,18.5 416,20.5 424,22.7 432,25.1 440,27.6 448,30.1 456,32.5 464,34.6 472,36.3 480,37.7" fill="none" stroke="#E7C46A" stroke-width="1.2" stroke-opacity="0.28" stroke-linecap="round"/><circle cx="0" cy="18.0" r="1.4" fill="#E7C46A" opacity="0.55"/><circle cx="120" cy="18.0" r="1.4" fill="#E7C46A" opacity="0.55"/><circle cx="240" cy="18.0" r="1.4" fill="#E7C46A" opacity="0.55"/><circle cx="360" cy="18.0" r="1.4" fill="#E7C46A" opacity="0.55"/><circle cx="480" cy="18.0" r="1.4" fill="#E7C46A" opacity="0.55"/></svg>